<?xml version="1.0" standalone="no"?>
<!DOCTYPE svg PUBLIC "-//W3C//DTD SVG 20010904//EN"
 "http://www.w3.org/TR/2001/REC-SVG-20010904/DTD/svg10.dtd">
<svg version="1.0" xmlns="http://www.w3.org/2000/svg"
 width="707.000000pt" height="689.000000pt" viewBox="0 0 707.000000 689.000000"
 preserveAspectRatio="xMidYMid meet">

<g transform="translate(0.000000,689.000000) scale(0.100000,-0.100000)"
fill="#000000" stroke="none">
<path d="M3425 5080 c-124 -26 -222 -105 -365 -298 -17 -22 -49 -43 -100 -65
-268 -116 -492 -369 -567 -639 -16 -57 -19 -60 -77 -91 -83 -44 -178 -142
-216 -222 -82 -172 -72 -329 30 -463 l41 -53 -95 -90 c-242 -229 -423 -513
-527 -828 -25 -79 -48 -131 -56 -131 -7 0 -42 10 -78 22 -58 19 -72 20 -119 9
-53 -12 -99 -48 -125 -98 -18 -35 -13 -104 9 -141 24 -39 20 -48 -20 -57 -16
-3 -43 -23 -61 -42 -28 -33 -31 -41 -27 -90 4 -44 11 -60 38 -88 68 -70 68
-70 705 -70 l570 0 43 23 c24 12 54 34 66 49 l23 27 54 -18 c116 -39 306 -32
524 19 248 58 413 53 650 -22 44 -13 89 -27 100 -29 88 -20 141 -26 207 -22
80 5 114 19 301 122 32 18 88 38 125 45 97 19 244 68 342 113 46 21 87 42 90
46 3 4 50 37 105 74 173 116 238 196 238 295 0 71 -42 155 -93 189 l-39 26 15
46 c73 244 9 490 -179 688 -81 86 -137 129 -224 174 -35 17 -63 34 -63 37 0 3
12 19 27 37 72 85 84 200 33 303 -36 72 -145 180 -239 237 -53 32 -62 42 -57
60 36 124 48 197 44 271 -9 157 -71 240 -218 291 -62 21 -262 25 -337 7 l-42
-11 -48 84 c-84 150 -181 241 -289 269 -64 16 -62 16 -119 5z m147 -149 c44
-28 128 -122 128 -143 0 -5 -8 -7 -19 -3 -102 32 -308 45 -409 26 -43 -8 -43
-8 -25 13 110 129 229 168 325 107z m53 -256 c33 -9 105 -38 160 -64 358 -172
625 -556 625 -900 0 -206 -105 -380 -281 -468 -238 -119 -567 -173 -954 -158
-211 8 -318 18 -295 28 43 18 78 28 161 42 141 25 238 59 288 102 82 69 103
171 57 268 -32 67 -68 102 -134 133 -49 22 -64 24 -141 19 -171 -10 -507 -141
-745 -291 -48 -31 -92 -56 -96 -56 -12 0 -74 89 -90 128 -20 52 -9 176 23 243
33 69 112 148 188 189 73 39 92 63 119 153 45 148 133 291 239 390 138 128
287 202 499 248 104 23 282 20 377 -6z m545 -56 c80 -13 134 -42 163 -89 18
-29 22 -50 22 -120 -1 -124 -7 -133 -51 -73 -46 61 -153 171 -226 233 -51 43
-55 49 -35 53 39 8 61 7 127 -4z m393 -727 c24 -27 52 -63 61 -80 21 -40 21
-111 0 -142 -20 -30 -86 -100 -94 -100 -3 0 -4 53 -2 117 2 75 -2 142 -11 186
-7 37 -10 67 -7 67 4 0 28 -22 53 -48z m-1328 -362 c65 -60 73 -126 21 -174
-38 -37 -96 -56 -274 -90 -385 -75 -688 -380 -906 -913 -53 -128 -57 -163 -21
-198 32 -33 84 -33 171 0 36 14 82 25 101 25 65 0 55 -54 -21 -110 -79 -61
-95 -130 -40 -181 19 -18 41 -25 87 -29 58 -5 62 -7 62 -29 0 -18 -10 -31 -35
-45 -34 -20 -52 -21 -478 -24 -551 -4 -712 7 -712 48 0 4 20 13 44 20 96 27
127 108 72 191 -32 48 -31 68 6 88 24 14 31 13 80 -7 91 -38 171 -25 213 35 8
11 33 76 55 144 202 617 667 1054 1330 1253 112 34 206 32 245 -4z m1346 -89
c85 -29 148 -64 227 -127 39 -31 71 -58 70 -59 -2 -1 -41 4 -88 11 -47 7 -141
13 -209 13 -123 -1 -125 -1 -143 24 -19 26 -19 26 7 67 14 23 30 52 35 65 11
30 29 31 101 6z m-202 -231 c179 -248 301 -802 228 -1040 l-14 -45 -7 100
c-25 348 -93 622 -216 871 -48 97 -56 120 -47 136 17 26 23 23 56 -22z m407
-41 c32 -6 89 -17 125 -25 l67 -15 30 -67 c48 -104 53 -141 28 -189 -26 -50
-66 -95 -131 -149 -62 -51 -169 -124 -182 -124 -5 0 -20 48 -32 108 -28 136
-81 294 -131 394 l-39 78 103 0 c56 0 129 -5 162 -11z m-702 -113 l-34 -64
-63 31 -62 31 90 32 c50 17 93 32 96 33 4 0 -9 -28 -27 -63z m241 -100 c52
-123 95 -270 125 -423 11 -57 20 -106 20 -108 0 -2 -26 23 -58 55 -32 32 -82
70 -111 85 -58 29 -163 55 -225 55 l-40 0 32 33 c41 43 62 95 62 157 0 54 38
150 94 239 35 55 39 51 101 -93z m-1445 47 c126 -14 149 -19 145 -32 -10 -34
-25 -148 -25 -190 l0 -44 -75 7 c-99 9 -263 51 -344 87 l-65 29 35 36 c55 58
153 134 167 129 7 -2 80 -12 162 -22z m864 -15 c-20 -17 -49 -55 -65 -84 -25
-43 -38 -55 -87 -77 -110 -48 -217 -72 -371 -83 l-104 -7 6 64 c3 35 11 90 18
122 l12 57 131 0 c153 0 269 8 381 25 121 19 120 19 79 -17z m200 -77 c71 -47
86 -122 36 -173 -29 -28 -35 -30 -86 -26 -61 5 -104 31 -118 70 -18 51 60 148
118 148 12 0 34 -9 50 -19z m-1456 -175 c105 -52 248 -91 407 -110 l99 -11 12
-70 c13 -75 44 -176 75 -239 24 -51 24 -59 -3 -51 -80 22 -98 37 -140 117 -90
174 -226 271 -411 293 -51 6 -61 10 -78 38 -18 31 -25 57 -14 57 3 0 27 -11
53 -24z m1210 -56 c35 -42 84 -72 137 -84 l30 -8 -54 -26 c-83 -41 -153 -111
-192 -191 l-33 -69 -86 -26 c-86 -26 -186 -46 -225 -46 -38 0 -125 204 -150
353 l-6 37 63 0 c123 1 296 31 398 70 41 16 77 29 79 29 2 1 20 -17 39 -39z
m1338 -23 c-25 -86 -101 -229 -173 -324 -72 -97 -161 -196 -148 -167 5 11 10
87 13 171 l4 152 52 30 c62 34 201 138 235 175 14 14 26 24 29 22 2 -3 -3 -29
-12 -59z m-2411 -118 c187 -70 288 -265 311 -601 l6 -97 -38 -7 c-121 -23
-324 2 -360 45 -53 63 -84 91 -102 91 -36 0 -35 19 2 62 103 120 44 268 -105
268 l-42 0 6 50 c8 65 50 143 102 187 39 34 41 34 105 28 36 -4 87 -16 115
-26z m1527 -30 c109 -23 203 -92 249 -181 17 -31 24 -66 27 -129 5 -106 -14
-180 -60 -232 -42 -47 -233 -155 -297 -167 -54 -10 -142 0 -228 27 l-52 16
-41 90 c-72 158 -87 271 -49 373 57 153 259 244 451 203z m957 -75 c13 -17 21
-41 21 -66 0 -31 -8 -47 -41 -83 -53 -57 -254 -195 -285 -195 -4 0 14 22 38
48 58 62 157 195 198 266 17 31 35 56 40 56 5 0 18 -12 29 -26z m-1520 -336
c6 -40 27 -109 45 -153 19 -44 33 -82 31 -83 -2 -2 -27 1 -55 7 -28 6 -66 11
-84 11 -28 0 -38 8 -83 68 -55 73 -113 158 -113 165 0 2 26 7 58 10 31 4 84
15 117 26 33 11 62 20 66 20 3 1 11 -32 18 -71z m-463 21 c52 -9 63 -15 79
-42 10 -18 40 -62 67 -99 26 -37 48 -72 48 -78 0 -6 -30 -10 -72 -10 -40 0
-102 -7 -138 -14 -36 -8 -66 -13 -66 -12 -1 0 -5 39 -8 86 -3 47 -9 109 -12
139 -7 53 -6 54 17 48 13 -4 51 -12 85 -18z"/>
<path d="M3604 4140 c-103 -41 -128 -262 -39 -356 75 -79 166 -12 181 135 14
129 -65 252 -142 221z"/>
<path d="M2967 4120 c-36 -28 -62 -103 -61 -175 0 -74 17 -125 54 -165 78 -83
180 10 180 165 0 147 -91 239 -173 175z"/>
</g>
</svg>
