<?xml version="1.0" standalone="no"?>
<!DOCTYPE svg PUBLIC "-//W3C//DTD SVG 20010904//EN"
 "http://www.w3.org/TR/2001/REC-SVG-20010904/DTD/svg10.dtd">
<svg version="1.0" xmlns="http://www.w3.org/2000/svg"
 width="1000.000000pt" height="1000.000000pt" viewBox="0 0 1000.000000 1000.000000"
 preserveAspectRatio="xMidYMid meet">

<g transform="translate(0.000000,1000.000000) scale(0.100000,-0.100000)"
fill="#000000" stroke="none">
<path d="M4085 7431 c-25 -11 -51 -40 -59 -66 -5 -19 -76 -1051 -76 -1114 l0
-30 83 6 c140 10 254 -35 352 -138 62 -64 99 -137 115 -220 8 -40 19 -63 45
-89 l35 -35 400 -3 c352 -2 405 -1 435 14 44 21 64 53 75 120 13 80 52 156
109 217 93 98 209 142 360 136 l86 -4 -3 73 c-15 318 -71 1071 -81 1090 -28
53 -11 52 -968 51 -488 0 -897 -4 -908 -8z m407 -677 c154 -51 178 -69 178
-135 0 -79 -73 -119 -220 -119 -94 0 -115 12 -165 98 -48 83 -53 107 -30 152
33 63 60 63 237 4z m1223 23 c20 -16 28 -35 32 -67 4 -40 -1 -53 -39 -115 -24
-38 -54 -75 -68 -82 -31 -16 -180 -17 -235 -2 -80 22 -112 84 -80 153 18 38
21 39 200 100 121 41 155 44 190 13z"/>
<path d="M3680 7424 c-8 -2 -157 -15 -330 -29 -341 -27 -418 -41 -543 -98
-264 -122 -447 -340 -518 -616 -38 -148 -37 -199 30 -1731 32 -741 32 -744 61
365 30 1159 27 1107 85 1281 80 239 226 433 420 560 154 100 302 150 638 214
117 23 228 45 247 49 32 8 31 9 -20 9 -30 0 -62 -2 -70 -4z"/>
<path d="M6255 7420 c17 -6 141 -33 277 -60 278 -56 379 -85 488 -140 294
-148 524 -464 569 -781 5 -41 15 -222 21 -404 20 -637 40 -1381 40 -1537 0
-87 4 -158 9 -158 10 0 13 54 51 980 51 1218 51 1265 -4 1427 -95 280 -354
528 -625 598 -80 20 -264 42 -501 60 -347 25 -358 26 -325 15z"/>
<path d="M3589 7250 c-286 -45 -350 -60 -456 -110 -248 -116 -431 -315 -529
-576 -42 -112 -52 -211 -69 -639 -8 -225 -26 -709 -40 -1075 -14 -366 -24
-732 -23 -814 l3 -149 440 503 c242 277 447 515 457 529 18 29 265 1157 255
1167 -7 8 -569 -74 -579 -84 -3 -4 -8 -95 -10 -202 l-3 -195 43 3 c23 2 42 -1
42 -6 0 -32 -95 -444 -110 -478 -19 -44 -85 -124 -103 -124 -6 0 -8 46 -3 138
8 167 56 1490 56 1549 0 23 6 48 13 55 17 16 385 74 398 61 4 -4 -7 -77 -26
-162 -40 -178 -41 -191 -17 -191 47 0 379 54 389 64 10 9 173 734 173 768 0
13 -52 8 -301 -32z"/>
<path d="M6120 7281 c0 -5 36 -175 81 -378 44 -202 156 -723 249 -1157 127
-592 175 -798 192 -826 39 -63 903 -1043 906 -1027 2 8 -11 388 -27 843 -17
456 -35 960 -41 1119 -20 541 -35 646 -114 810 -100 204 -277 376 -490 475
-111 52 -161 64 -461 110 -281 43 -295 45 -295 31z m759 -458 c128 -25 190
-42 203 -55 16 -16 18 -37 18 -203 0 -172 -1 -186 -20 -205 -25 -25 -18 -25
-228 9 -114 18 -178 33 -189 44 -12 11 -21 66 -36 211 -19 189 -20 197 -2 216
24 27 41 26 254 -17z m74 -912 c64 -10 120 -21 123 -24 7 -7 23 -507 23 -722
l0 -160 -49 53 c-60 64 -55 50 -149 492 -39 184 -74 345 -77 358 -7 26 -17 26
129 3z"/>
<path d="M6111 6805 c-1 -11 13 -160 29 -330 l31 -310 47 -42 c26 -22 48 -40
50 -38 5 4 -137 697 -148 720 -9 20 -9 20 -9 0z"/>
<path d="M3859 6640 c0 -3 -26 -122 -58 -265 -32 -143 -56 -262 -55 -264 10
-12 84 55 93 83 5 17 17 120 27 229 13 149 14 201 5 210 -6 6 -11 9 -12 7z"/>
<path d="M3966 6190 c-115 -29 -224 -122 -279 -238 -30 -62 -32 -75 -32 -172
0 -102 1 -109 37 -182 45 -91 103 -147 196 -191 63 -30 74 -32 177 -32 98 0
116 3 165 26 85 41 137 84 179 149 139 215 64 494 -165 606 -62 31 -84 37
-156 40 -45 2 -100 -1 -122 -6z m225 -176 c94 -51 147 -152 136 -258 -13 -131
-110 -223 -244 -234 -146 -11 -267 92 -280 239 -19 210 202 354 388 253z"/>
<path d="M4005 5996 c-13 -9 -21 -31 -25 -67 l-5 -54 -54 -5 c-64 -7 -81 -25
-81 -90 0 -58 21 -80 76 -80 51 0 64 -14 64 -65 0 -56 22 -75 87 -75 61 0 83
20 83 76 0 51 14 64 65 64 55 0 75 22 75 81 0 64 -17 82 -81 89 l-54 5 -5 54
c-7 63 -25 81 -85 81 -23 0 -50 -6 -60 -14z"/>
<path d="M5809 6182 c-83 -28 -166 -87 -216 -155 -58 -79 -76 -144 -71 -260 2
-78 8 -102 35 -159 42 -89 110 -160 191 -200 54 -27 79 -33 152 -36 187 -9
337 79 411 244 25 56 29 75 29 157 0 53 -6 115 -15 143 -31 107 -131 210 -244
254 -79 31 -199 36 -272 12z m215 -152 c74 -28 139 -98 162 -175 20 -72 14
-129 -23 -197 -102 -187 -375 -183 -468 7 -52 105 -33 218 50 301 81 82 174
103 279 64z"/>
<path d="M6356 5633 c-4 -4 -15 -26 -25 -49 -10 -23 -36 -60 -56 -83 l-37 -41
32 -342 c18 -189 38 -349 44 -357 19 -24 898 -723 903 -718 2 3 -147 180 -332
394 -185 213 -343 402 -350 418 -7 17 -47 198 -89 404 -42 206 -78 376 -80
378 -1 2 -6 0 -10 -4z"/>
<path d="M3632 5575 c-6 -28 -40 -194 -77 -369 -36 -176 -75 -338 -87 -360
-11 -23 -39 -61 -63 -86 -96 -102 -606 -703 -600 -708 6 -7 -38 -41 474 368
231 184 422 340 425 346 2 7 19 161 36 343 l32 331 -42 48 c-23 26 -52 67 -65
92 l-22 44 -11 -49z"/>
<path d="M2190 3210 l0 -530 173 2 172 3 3 143 3 142 54 0 55 0 0 -145 0 -145
173 2 172 3 3 528 2 527 -405 0 -405 0 0 -530z m320 295 l0 -45 -50 0 -50 0 0
45 0 45 50 0 50 0 0 -45z m270 0 l0 -45 -55 0 -55 0 0 45 0 45 55 0 55 0 0
-45z m-130 -105 c0 -27 3 -30 30 -30 l30 0 0 -90 c0 -83 -1 -90 -20 -90 -16 0
-20 7 -20 30 l0 30 -75 0 -75 0 0 -30 c0 -23 -4 -30 -20 -30 -19 0 -20 7 -20
90 l0 90 30 0 c27 0 30 3 30 30 0 30 1 30 55 30 54 0 55 0 55 -30z"/>
<path d="M3100 3210 l0 -530 168 2 167 3 3 223 2 222 30 0 c30 0 30 0 30 -60
l0 -60 125 0 125 0 0 60 0 60 35 0 35 0 0 -225 0 -225 168 2 167 3 3 528 2
527 -170 0 -170 0 0 -65 0 -65 -50 0 -50 0 0 -70 0 -70 -90 0 -90 0 0 70 0 70
-50 0 -50 0 0 65 0 65 -170 0 -170 0 0 -530z"/>
<path d="M4260 3210 l0 -530 398 2 397 3 0 140 0 140 -222 3 -223 2 0 50 0 50
225 0 226 0 -3 143 -3 142 -222 3 -223 2 0 50 0 50 225 0 225 0 0 140 0 140
-400 0 -400 0 0 -530z"/>
<path d="M5187 3733 c-4 -3 -7 -240 -7 -525 l0 -518 355 0 355 0 0 55 0 55 55
0 55 0 0 180 0 180 -55 0 -55 0 0 55 0 55 55 0 55 0 0 175 0 175 -55 0 -54 0
-3 58 -3 57 -346 3 c-190 1 -348 -1 -352 -5z m583 -288 l0 -175 -175 0 -175 0
0 175 0 175 175 0 175 0 0 -175z m0 -465 l0 -170 -175 0 -175 0 0 170 0 170
175 0 175 0 0 -170z"/>
<path d="M6114 3727 c-2 -7 -3 -87 -2 -177 l3 -165 58 -3 57 -3 0 -114 0 -115
60 0 60 0 0 -55 0 -55 55 0 55 0 0 -175 0 -175 120 0 120 0 0 175 0 175 60 0
60 0 0 55 0 55 55 0 55 0 0 115 0 114 58 3 57 3 3 178 2 177 -120 0 -120 0 0
-175 0 -175 -55 0 -55 0 0 -115 0 -115 -115 0 -115 0 0 115 0 115 -60 0 -60 0
0 175 0 175 -115 0 c-85 0 -117 -3 -121 -13z"/>
<path d="M7160 3680 l0 -60 115 0 115 0 0 -465 0 -465 120 0 120 0 0 465 0
465 115 0 115 0 0 60 0 60 -350 0 -350 0 0 -60z"/>
<path d="M8090 3680 l0 -60 -60 0 -60 0 2 -407 3 -408 58 -3 57 -3 0 -54 0
-55 350 0 350 0 0 115 0 115 -290 0 -290 0 0 115 0 115 233 2 232 3 3 58 3 57
-236 0 -235 0 0 175 0 175 290 0 290 0 0 60 0 60 -350 0 -350 0 0 -60z"/>
<path d="M1330 3665 l0 -65 -65 0 -65 0 2 -397 3 -398 63 -3 62 -3 0 -59 0
-60 385 0 385 0 0 290 0 290 -185 0 -185 0 0 -55 0 -55 45 0 45 0 0 -95 0 -95
-130 0 -130 0 0 245 0 245 270 0 270 0 0 140 0 140 -385 0 -385 0 0 -65z"/>
</g>
</svg>
