<svg version="1.1" id="Layer_1" xmlns="http://www.w3.org/2000/svg" xmlns:xlink="http://www.w3.org/1999/xlink" x="0px" y="0px"
	 width="100%" viewBox="0 0 456 457" enable-background="new 0 0 456 457" xml:space="preserve">
<path fill="#FDFDFD" opacity="1.000000" stroke="none" 
	d="
M1.000001,318.000000 
	C1.000000,213.312439 1.000000,108.624878 1.293037,3.308243 
	C1.724050,2.119447 1.862025,1.559723 2.000000,1.000000 
	C153.579788,1.000000 305.159576,1.000000 457.000000,1.000000 
	C457.000000,103.687416 457.000000,206.375046 456.999512,308.908936 
	C456.615112,308.611359 456.231232,308.467499 455.535095,308.211609 
	C443.788391,308.070312 432.353760,308.000946 420.919830,308.065735 
	C419.590332,308.073273 418.265045,308.823761 416.527954,309.360168 
	C415.353668,311.320007 414.589203,313.149445 413.444702,314.977783 
	C411.358124,315.475708 409.651550,315.974823 407.673584,316.837097 
	C407.402161,333.196167 407.402161,349.192017 407.402161,365.336548 
	C409.712677,365.529938 411.659607,365.692871 414.052307,365.893127 
	C414.052307,367.958221 414.052307,369.919373 414.092041,372.291840 
	C415.109009,373.126984 416.083344,373.911743 417.063843,373.919525 
	C428.269806,374.008331 439.476990,374.018463 450.682770,373.920410 
	C451.825562,373.910431 452.960968,373.061279 454.450134,372.494843 
	C455.533630,372.258759 456.266815,372.129395 457.000000,372.000000 
	C457.000000,400.666656 457.000000,429.333344 456.581055,457.751282 
	C455.774719,457.668365 455.387360,457.834198 455.000000,458.000000 
	C304.312439,458.000000 153.624878,458.000000 2.386425,457.763062 
	C1.557024,457.350739 1.278514,457.175354 1.000001,457.000000 
	C1.000000,426.979095 1.000000,396.958221 1.421050,366.273376 
	C3.763417,365.609406 5.684733,365.609406 7.723767,365.609406 
	C7.900679,368.466370 8.038839,370.697510 8.168978,372.799133 
	C23.696724,372.799133 38.751556,372.799133 53.630344,372.799133 
	C53.630344,361.084167 53.630344,349.715332 53.630344,338.500549 
	C46.143288,338.500549 39.093307,338.500549 31.982985,338.500549 
	C31.982985,340.695160 31.982985,342.476715 31.982985,344.478760 
	C33.716324,344.762115 35.272175,345.016449 36.764610,345.260406 
	C36.764610,348.991058 36.764610,352.362030 36.764610,355.763428 
	C31.437828,355.763428 26.529482,355.763428 21.421898,355.763428 
	C21.421898,346.064270 21.421898,336.680573 21.421898,326.707733 
	C32.415600,326.707733 43.131798,326.707733 53.761200,326.707733 
	C53.761200,320.850586 53.761200,315.588715 53.761200,310.200775 
	C38.419712,310.200775 23.377333,310.200775 8.192120,310.200775 
	C7.995907,312.763153 7.823511,315.014526 7.638285,317.433441 
	C5.229215,317.639038 3.114609,317.819550 1.000001,318.000000 
M357.042877,104.979591 
	C357.042877,104.979591 357.102081,104.855186 357.119934,105.568161 
	C358.072723,106.048569 359.025482,106.528984 360.628235,107.183556 
	C371.471802,116.115654 379.441345,127.185387 382.385193,140.913544 
	C384.317963,149.926590 384.614197,159.363785 384.935791,168.635559 
	C385.955902,198.046555 386.643890,227.469086 387.188080,257.752899 
	C387.244812,260.157684 387.301544,262.562500 387.138062,265.827698 
	C387.108887,268.190125 387.079681,270.552521 386.759430,273.522491 
	C386.976410,274.273987 387.193420,275.025452 387.410400,275.776947 
	C387.899628,274.768707 388.388824,273.760468 388.817352,271.895264 
	C388.895905,269.599030 388.974487,267.302826 389.268921,264.140961 
	C389.222076,261.778839 389.175232,259.416718 389.351501,256.161285 
	C389.814331,247.460587 390.277130,238.759903 391.314972,229.767426 
	C391.223846,228.181854 391.132721,226.596298 390.861633,224.087662 
	C391.144257,218.411499 391.426880,212.735352 392.307770,206.744827 
	C392.180054,204.823135 392.052368,202.901459 391.742035,200.059448 
	C392.085083,193.392899 392.428131,186.726364 393.336700,179.745697 
	C393.201813,178.157791 393.066925,176.569870 392.754639,174.061630 
	C393.086273,168.727646 393.417938,163.393677 394.376190,157.663330 
	C394.150421,151.754654 393.924652,145.845993 393.372284,139.262543 
	C393.333862,138.516830 393.295471,137.771103 393.831757,136.937347 
	C393.519012,136.297028 393.206299,135.656708 392.515198,134.359680 
	C386.523773,110.481766 367.103149,92.823753 344.533081,90.746834 
	C343.970642,90.789856 343.408173,90.832886 342.061859,90.546791 
	C340.363190,90.428474 338.664490,90.310150 336.515930,89.828880 
	C335.960083,89.856354 335.404205,89.883827 333.990936,89.615898 
	C330.320770,89.446877 326.650635,89.277855 322.664948,88.805588 
	C322.113037,88.884460 321.561157,88.963341 320.135254,88.857483 
	C317.761871,88.865929 315.388458,88.874374 312.695984,88.182663 
	C311.155853,88.133018 309.615723,88.083374 307.272278,87.988914 
	C305.672028,87.910614 304.071747,87.832314 302.006348,87.731247 
	C302.191895,89.189156 302.356323,90.481262 302.545319,91.966187 
	C305.063446,91.199074 307.032166,90.599319 309.803650,90.040718 
	C310.870697,90.022652 311.937775,90.004593 313.746613,90.237701 
	C315.478821,90.699883 317.211029,91.162064 319.073578,92.123352 
	C319.717010,92.077293 320.360474,92.031235 321.818237,91.896088 
	C328.547363,93.584602 335.276520,95.273117 342.171661,97.770012 
	C343.388000,97.975372 344.604370,98.180740 346.493835,98.442688 
	C349.012939,99.882835 351.532013,101.322990 354.096771,103.510162 
	C355.111633,103.967865 356.126526,104.425568 357.042877,104.979591 
M239.875900,309.884247 
	C239.875900,309.884247 239.635986,309.868866 238.889496,310.137573 
	C238.607010,310.707977 238.079102,311.277740 238.077545,311.848907 
	C238.024490,331.262421 238.042145,350.676117 237.990173,370.089630 
	C237.981781,373.225220 239.652008,374.012787 242.412338,373.999847 
	C253.861328,373.946198 265.311096,374.019043 276.759399,373.916229 
	C277.861084,373.906311 278.954773,373.001953 280.606781,372.208679 
	C280.813049,372.165009 281.019348,372.121368 281.811218,371.997986 
	C281.789795,371.308868 281.768402,370.619751 281.491272,369.207367 
	C281.583344,368.455444 281.675446,367.703491 282.587250,366.963989 
	C284.434662,366.464386 286.282074,365.964752 288.452301,364.514587 
	C288.452301,357.984894 288.452301,351.455200 288.452301,344.876160 
	C285.810883,344.588318 283.761017,344.364960 281.422821,344.110168 
	C281.569092,342.155304 281.688507,340.559265 282.630005,338.975769 
	C284.456299,338.435455 286.282593,337.895172 288.391754,336.407959 
	C288.293304,329.833954 288.194855,323.259949 287.867279,315.964233 
	C285.848694,315.654480 283.830109,315.344727 281.554474,314.343170 
	C281.591248,313.124268 281.628052,311.905396 281.816437,309.804291 
	C280.814758,309.209137 279.818146,308.106293 278.810638,308.096191 
	C266.726257,307.975281 254.639984,307.981750 242.555283,308.085358 
	C241.655411,308.093079 240.764099,309.100952 239.875900,309.884247 
M134.955338,371.855164 
	C134.774170,366.556030 134.593002,361.256866 134.242249,355.191315 
	C134.303482,353.384521 134.364716,351.577728 135.300812,349.913269 
	C136.186600,349.943909 137.072388,349.974579 138.131805,350.840485 
	C138.878677,351.680145 139.585129,353.198364 140.379181,353.245636 
	C144.491455,353.490479 148.626099,353.359497 152.882080,353.359497 
	C153.204041,351.280121 153.452621,349.674591 154.348648,348.075256 
	C155.211502,348.052826 156.074341,348.030396 157.153854,348.745667 
	C157.079773,349.503571 157.005707,350.261444 156.380646,351.595276 
	C156.550385,352.324554 156.720123,353.053864 156.988174,354.257782 
	C156.947922,354.897949 156.907654,355.538086 156.359207,356.987732 
	C156.546982,358.985321 156.734772,360.982941 157.158493,363.768341 
	C157.079773,364.852905 157.001038,365.937439 156.350479,367.546661 
	C155.693787,373.597290 155.973053,373.945770 161.788986,373.984100 
	C166.119202,374.012665 170.451233,373.920044 174.779694,374.011688 
	C177.715042,374.073883 179.010101,372.860992 179.002029,369.864990 
	C178.949997,350.544769 179.039963,331.223602 178.825729,311.905609 
	C178.811234,310.597473 176.769913,308.285309 175.540863,308.193939 
	C170.075119,307.787598 164.556793,307.907074 159.071686,308.153259 
	C158.315704,308.187164 157.639313,309.994720 157.155655,311.833832 
	C157.155655,313.513977 157.155655,315.194092 157.155655,317.027527 
	C154.938095,317.027527 153.501480,317.027527 151.273056,317.093292 
	C150.834915,319.938263 150.396759,322.783203 149.114410,325.842407 
	C147.087097,325.792572 145.059799,325.742737 142.909241,324.935089 
	C142.597672,323.181427 142.469055,321.365967 141.905609,319.697327 
	C141.569656,318.702454 140.551102,317.938080 139.082901,317.118469 
	C137.401154,316.567688 134.325165,318.756622 135.005096,314.866821 
	C135.308182,314.780823 135.611267,314.694855 135.914352,314.608887 
	C135.413010,314.504395 134.911667,314.399872 134.258163,313.705811 
	C134.307831,313.509033 134.357483,313.312256 134.992279,312.965881 
	C134.800751,312.296417 134.609222,311.626953 134.161179,310.364471 
	C134.138519,310.150299 134.115875,309.936127 133.965454,309.035919 
	C133.313950,308.554047 132.658676,307.650848 132.011520,307.656586 
	C126.566002,307.705017 121.101463,307.717194 115.695656,308.264130 
	C114.675232,308.367401 113.124405,310.790833 113.112114,312.155334 
	C112.941162,331.134369 112.956680,350.115631 113.070877,369.095490 
	C113.079842,370.585449 114.093964,373.325287 114.753197,373.360107 
	C120.994843,373.690002 127.260956,373.571442 133.519196,373.505096 
	C133.717941,373.502960 133.907913,372.673920 134.052979,372.101837 
	C134.052979,372.101837 134.189011,372.081665 134.955338,371.855164 
M311.570587,200.039810 
	C311.390594,199.010956 311.210602,197.982101 311.096680,196.251465 
	C310.436768,194.171158 309.776825,192.090851 309.085205,189.114365 
	C309.553864,180.595566 307.249298,173.242264 300.240540,167.809097 
	C299.962372,167.593491 300.161682,166.761993 300.455078,165.529434 
	C301.611725,166.186844 302.768372,166.844254 304.523712,167.841934 
	C301.940277,155.271896 299.989136,143.366257 295.940216,131.981674 
	C295.544708,134.685593 295.594604,137.266754 295.978699,139.797195 
	C297.319672,148.631058 298.776123,157.447372 299.401825,166.539352 
	C295.956390,164.956329 292.510956,163.373322 289.420502,161.356003 
	C289.929474,160.864624 290.438446,160.373245 291.053528,158.974152 
	C289.704956,138.042252 288.296997,117.113922 287.038849,96.176590 
	C286.576538,88.482399 285.204681,86.989029 277.399048,86.986618 
	C244.911118,86.976578 212.423203,86.974693 179.935272,86.975647 
	C170.755188,86.975922 169.585907,88.283211 169.001602,97.634254 
	C168.223984,110.078835 167.187393,122.507233 165.689697,135.236649 
	C165.785278,136.822495 165.880844,138.408356 166.124710,140.817825 
	C166.003662,142.203262 165.882614,143.588715 165.024719,145.187546 
	C165.016983,148.458481 165.009247,151.729431 165.134033,155.784576 
	C165.122177,157.109177 165.110336,158.433792 165.177109,160.335052 
	C165.443375,160.852768 165.709641,161.370483 165.327026,162.230820 
	C162.558334,163.462845 159.789658,164.694870 157.023788,165.151733 
	C161.437592,155.796188 159.464584,145.690811 160.504196,135.860916 
	C159.317780,137.138123 158.801422,138.563278 158.431946,140.025528 
	C156.709991,146.840378 154.940659,153.645432 153.377548,160.497147 
	C152.780243,163.115433 151.667053,166.068390 154.306778,168.223175 
	C151.929626,173.141373 149.552490,178.059570 146.632263,183.507202 
	C146.814041,185.677170 146.995819,187.847153 147.350372,190.766495 
	C147.777908,192.504807 148.205429,194.243118 147.870956,195.962173 
	C147.223495,196.584259 146.576035,197.206345 145.307953,198.373550 
	C145.101883,200.682388 145.095551,203.030090 144.655167,205.293335 
	C142.749130,215.089355 140.660828,224.849884 138.750244,234.645050 
	C137.604462,240.519196 134.988556,245.416611 130.892029,249.888855 
	C121.232368,260.434509 111.936188,271.313965 102.566643,282.122253 
	C102.005325,282.769806 102.090988,283.978180 101.567604,286.280273 
	C104.974617,283.846985 107.292145,282.340240 109.446236,280.627899 
	C119.220055,272.858398 128.559784,264.468781 138.809143,257.393799 
	C147.763000,251.213089 153.293610,244.105789 151.955750,232.814529 
	C151.823181,231.695740 152.317841,230.516617 152.390366,229.357315 
	C152.876831,221.579727 153.327805,213.799927 154.538406,206.036667 
	C155.036179,206.017334 155.533966,205.998001 156.629501,206.309402 
	C165.318665,212.316116 174.537521,213.163055 183.883347,208.333969 
	C193.203796,203.517975 197.202271,195.353287 197.738770,184.961823 
	C198.223083,184.932693 198.707413,184.903549 199.614899,185.247238 
	C200.069641,185.842926 200.524384,186.438629 201.024765,187.693619 
	C202.679047,188.177383 204.333344,188.661163 206.924515,189.081543 
	C220.956207,189.105499 234.987885,189.129456 249.339355,189.624237 
	C250.292160,189.315063 251.244965,189.005905 252.785797,188.252182 
	C254.339645,186.164749 255.893494,184.077332 258.229065,182.568130 
	C258.523407,182.703827 258.817780,182.839508 259.215179,183.862473 
	C258.842499,194.750259 262.686432,203.661346 272.645233,208.620346 
	C282.621399,213.587967 292.325226,212.090057 301.751984,205.069351 
	C302.215240,205.049942 302.678467,205.030548 303.037354,205.935181 
	C303.853119,216.377884 305.134979,226.811829 305.330933,237.266159 
	C305.476624,245.037521 308.720642,249.983582 314.809631,254.519730 
	C327.674774,264.103973 339.997437,274.416443 352.542603,284.430206 
	C353.029907,284.146698 353.517181,283.863190 354.004486,283.579681 
	C353.069550,281.941071 352.365112,280.106018 351.162903,278.695129 
	C342.209686,268.187653 333.026764,257.872681 324.228149,247.238953 
	C322.001434,244.547867 320.208130,241.087463 319.410950,237.699341 
	C316.745789,226.371521 314.622314,214.916260 312.642517,202.973999 
	C312.347870,202.249390 312.053223,201.524765 311.570587,200.039810 
M399.870819,309.113373 
	C399.179810,308.750610 398.490448,308.075256 397.797546,308.071594 
	C385.708038,308.007538 373.618011,308.010406 361.528351,308.055603 
	C360.571899,308.059174 359.069824,308.187561 358.761749,308.762177 
	C357.750275,310.648834 356.901001,312.731323 356.618378,314.823547 
	C356.547394,315.348938 358.829193,316.192169 360.937531,316.680176 
	C364.526581,316.680176 368.115601,316.680176 372.035370,316.680176 
	C372.035370,335.467255 372.035370,353.692627 372.131500,372.732025 
	C376.445343,374.834869 383.516876,374.494629 386.111267,371.121460 
	C386.196503,353.427917 386.281708,335.734375 387.052887,318.048767 
	C388.044983,317.662018 389.037109,317.275299 390.891998,316.679962 
	C393.250977,316.751312 395.609955,316.822662 398.265564,317.373016 
	C398.871338,316.992096 399.477112,316.611176 400.094757,315.325714 
	C400.074860,313.519684 400.054962,311.713654 399.870819,309.113373 
M63.548096,154.695892 
	C63.774448,158.447159 64.000801,162.198425 64.114876,166.846817 
	C64.369972,171.223526 64.625061,175.600220 64.575516,180.651703 
	C64.801315,183.082474 65.027115,185.513229 65.131561,188.878799 
	C65.405525,195.582901 65.679489,202.287018 65.639664,209.556900 
	C65.840340,211.020126 66.041016,212.483353 66.141090,214.870956 
	C66.389603,219.573349 66.638123,224.275742 66.571091,229.648972 
	C66.800598,232.080185 67.030106,234.511383 67.160500,237.821716 
	C67.423309,242.213486 67.686119,246.605240 67.504768,251.659851 
	C67.738022,256.337891 67.971268,261.015961 68.204521,265.694000 
	C68.692787,265.642670 69.181046,265.591339 69.669312,265.540009 
	C69.669312,260.652466 69.669312,255.764938 69.797867,250.011047 
	C69.809914,247.666443 69.821960,245.321838 70.175774,242.683716 
	C70.089409,242.127258 70.003044,241.570786 70.084885,240.115784 
	C70.334961,230.402847 70.585037,220.689911 71.175453,210.563766 
	C71.093079,209.713470 71.010712,208.863159 71.062912,207.109253 
	C71.319244,197.065048 71.575577,187.020828 72.179855,176.433609 
	C72.095024,174.960297 72.010193,173.486984 72.050026,171.084976 
	C72.102341,167.252106 72.084282,163.416779 72.218102,159.586746 
	C73.302986,128.537704 88.918892,106.011887 116.422256,96.476311 
	C123.662178,93.966187 131.288223,92.569763 138.736969,90.661919 
	C130.844589,90.023239 123.068207,90.882858 115.285599,90.943542 
	C95.488365,91.097900 74.090179,106.502144 67.148689,125.966713 
	C66.677437,127.695580 66.206192,129.424454 65.380348,131.882034 
	C65.034554,133.712860 64.688751,135.543701 63.939957,137.990479 
	C63.885872,139.711182 63.831787,141.431900 63.550808,143.963974 
	C63.665577,147.302505 63.780346,150.641052 63.548096,154.695892 
M295.124664,321.879944 
	C295.066101,324.251373 295.007568,326.622772 294.256104,329.019226 
	C293.633942,329.278656 293.011749,329.538086 292.230499,329.863861 
	C295.753906,331.724365 298.859680,333.364319 302.133698,335.891571 
	C302.133698,338.649292 302.133698,341.406982 302.133698,344.273956 
	C304.736694,344.551178 306.802155,344.771149 308.867615,344.991089 
	C308.576813,345.290985 308.286011,345.590851 307.995239,345.890747 
	C309.322784,347.901825 310.650360,349.912903 312.398315,352.481659 
	C313.541992,352.662048 314.685669,352.842438 316.117767,353.916779 
	C316.106476,359.881592 316.095184,365.846436 316.151794,372.634735 
	C320.117401,374.785858 327.356903,374.535309 330.204590,371.213287 
	C330.319580,365.093201 330.434570,358.973145 331.363647,352.932220 
	C332.582153,352.596954 333.800659,352.261688 335.600616,351.723297 
	C336.152802,351.492096 336.704987,351.260895 337.974792,350.846771 
	C338.549927,349.390961 339.125061,347.935181 339.699890,346.479279 
	C346.729218,345.268555 347.890839,343.199646 344.286133,337.239288 
	C344.337708,336.507660 344.389252,335.776001 345.100494,334.844299 
	C346.519836,333.894623 347.973785,332.991608 349.344360,331.976074 
	C350.059937,331.445801 350.628815,330.717621 351.274048,329.132233 
	C351.201843,322.702118 351.129639,316.272003 350.878815,309.057159 
	C346.641602,308.778046 342.405975,308.452789 338.164185,308.308380 
	C337.828583,308.296967 337.450256,309.541077 337.172150,311.110504 
	C337.172150,317.409149 337.172150,323.707794 337.172150,330.126892 
	C334.669037,330.348938 332.586884,330.533630 330.019287,330.761353 
	C330.019287,335.493378 330.019287,339.914551 330.019287,344.151703 
	C325.231354,344.151703 320.973022,344.151703 316.236267,344.151703 
	C316.236267,339.533020 316.236267,335.267456 316.236267,330.831238 
	C313.722778,330.503693 311.652466,330.233887 309.173767,329.910858 
	C309.173767,323.093018 309.173767,316.511078 309.173767,309.793213 
	C304.300293,309.793213 299.889984,309.793213 295.374084,309.793213 
	C295.215912,311.376129 295.085114,312.685120 294.223511,314.101074 
	C290.914795,317.275726 291.080200,318.843597 295.124664,321.879944 
M183.909103,310.816071 
	C183.927032,331.242767 183.944962,351.669495 184.116562,372.893066 
	C185.810349,373.259430 187.501297,373.927063 189.198349,373.942963 
	C199.665649,374.041016 210.135315,374.082642 220.602310,373.969269 
	C233.744003,373.826965 233.076096,376.470947 232.918289,361.399353 
	C232.899200,359.576080 231.757812,357.764526 230.182144,355.958038 
	C221.852966,355.958038 213.523804,355.958038 204.851273,355.958038 
	C204.951691,353.908661 205.022659,352.460266 206.018951,351.013611 
	C214.910431,351.013611 223.801910,351.013611 232.993958,351.013611 
	C232.993958,345.134583 233.030350,339.506836 232.971832,333.880035 
	C232.954239,332.187958 232.833221,332.189209 230.115692,332.617584 
	C221.844818,332.617584 213.573944,332.617584 205.243378,332.617584 
	C205.243378,330.227295 205.243378,328.347687 205.243378,326.201050 
	C212.074310,326.201050 218.526093,326.201050 225.070648,326.751495 
	C225.721771,326.574188 226.372910,326.396851 227.841904,326.089020 
	C228.946106,326.078674 230.050323,326.068298 231.945831,325.891510 
	C232.173111,320.716034 232.572617,315.536499 232.450180,310.369324 
	C232.430847,309.552826 230.062210,308.123932 228.766312,308.108459 
	C214.815063,307.942017 200.860779,307.964539 186.908554,308.080841 
	C185.916672,308.089081 184.934357,309.241577 183.909103,310.816071 
M86.304703,359.079865 
	C86.011597,359.403687 85.718483,359.727478 85.425377,360.051270 
	C85.912094,360.371948 86.398811,360.692627 87.025307,361.917450 
	C87.019974,365.270905 87.014648,368.624359 87.121216,372.790009 
	C92.341164,373.190674 97.556503,373.707733 102.784126,373.914764 
	C104.191017,373.970490 105.635223,373.083893 107.523331,371.844269 
	C107.615379,369.696991 107.780640,367.549927 107.787971,365.402374 
	C107.850807,346.989410 107.885056,328.576324 107.878433,309.330719 
	C106.737381,308.886963 105.598686,308.064209 104.454926,308.057098 
	C90.492813,307.970428 76.529701,308.049866 62.567497,307.971222 
	C59.297359,307.952789 58.360165,309.274567 58.361095,312.487427 
	C58.366570,331.421906 58.211979,350.357056 57.993565,369.290619 
	C57.945866,373.425354 60.680958,374.488525 63.735878,374.575592 
	C68.349266,374.707092 72.988174,374.299103 77.597397,373.901917 
	C78.456268,373.827881 79.226540,372.725494 80.083733,371.151642 
	C80.083733,366.149536 80.083733,361.147430 80.083733,355.261719 
	C82.802147,357.148346 87.165657,353.034668 86.304703,359.079865 
M378.563599,196.494766 
	C378.263885,194.310013 377.964172,192.125275 377.377289,189.063934 
	C377.352753,185.053085 377.328186,181.042252 377.914429,176.916397 
	C377.689301,175.935547 377.464172,174.954681 377.037781,173.107224 
	C377.035767,170.735199 377.033752,168.363159 377.496185,165.664352 
	C377.241638,164.755814 376.987061,163.847290 376.399719,162.075333 
	C375.949402,156.712402 375.499115,151.349457 375.479095,145.700134 
	C375.146210,145.117249 374.813293,144.534363 374.145935,143.235413 
	C370.590210,136.258652 367.016632,129.290863 363.501862,122.293541 
	C363.073944,121.441719 362.962250,120.431091 363.048309,119.223541 
	C363.048370,119.038658 363.048401,118.853775 363.048431,118.668900 
	C362.867676,118.878059 362.686920,119.087219 361.912018,119.813774 
	C354.288147,114.417244 346.664307,109.020721 338.874084,102.943596 
	C335.646606,102.151047 332.419098,101.358498 328.417999,100.557190 
	C326.631165,100.150345 324.844330,99.743500 322.869171,98.793808 
	C321.918304,98.840393 320.967438,98.886986 319.176971,99.055847 
	C317.803467,98.771042 316.429993,98.486244 314.897247,97.742485 
	C314.272308,97.797920 313.647400,97.853355 312.335571,97.980209 
	C311.905518,97.836967 311.475464,97.693726 310.853821,96.910629 
	C309.244110,96.907684 307.634430,96.904732 305.209686,97.041763 
	C304.158386,96.756920 303.107056,96.472069 301.892456,95.736618 
	C301.272339,95.780685 300.652191,95.824753 299.148590,95.957993 
	C295.794800,95.222511 295.575378,96.926376 296.175934,99.571152 
	C297.830841,106.859108 299.398193,114.167213 300.963257,121.475258 
	C308.723602,157.712372 316.317902,193.986542 324.406006,230.150284 
	C325.504181,235.060425 328.326172,240.032150 331.594543,243.932434 
	C345.794586,260.877838 360.455566,277.436951 374.954803,294.857666 
	C375.725494,295.531586 376.496216,296.205505 377.794098,297.065582 
	C378.215515,297.666962 378.636932,298.268341 378.997498,299.543793 
	C379.613647,300.932098 380.229828,302.320374 380.846008,303.708679 
	C381.449554,303.616791 382.053131,303.524872 382.656708,303.432983 
	C382.248688,299.607239 381.840668,295.781464 381.197357,291.055817 
	C381.154846,286.364044 381.112335,281.672241 381.637787,276.417969 
	C381.214905,273.265717 380.791992,270.113464 380.183655,266.050232 
	C380.140320,261.361786 380.096985,256.673340 380.641602,251.398407 
	C380.755249,247.951859 381.065460,244.495804 380.899719,241.062744 
	C380.816681,239.342529 379.866241,237.664185 379.112976,235.247299 
	C379.155426,234.506622 379.197876,233.765930 379.792938,232.949905 
	C379.592438,232.292938 379.391937,231.635956 378.996185,230.098633 
	C379.006348,227.396591 379.016510,224.694534 379.597382,221.432816 
	C379.222076,218.272644 378.846771,215.112473 378.250275,211.049881 
	C378.174316,206.364471 378.098358,201.679077 378.563599,196.494766 
M127.438744,100.988678 
	C100.578835,107.079048 81.895233,130.354843 80.862617,158.681885 
	C79.399849,198.809219 77.744965,238.929550 76.262756,279.056213 
	C76.015503,285.750000 76.227913,292.460724 76.227913,299.163635 
	C76.758507,299.436310 77.289101,299.708984 77.819695,299.981659 
	C78.169037,299.211578 78.358795,298.302460 78.890907,297.691589 
	C95.521370,278.599518 112.232803,259.577545 128.769836,240.405121 
	C130.411179,238.502197 131.469284,235.810120 132.034760,233.311554 
	C135.817108,216.599304 139.407776,199.843536 143.024948,183.094177 
	C144.060364,178.299622 144.977875,173.479599 146.139816,167.729126 
	C134.356903,169.484024 123.540665,171.007080 112.779419,172.851120 
	C111.836815,173.012665 110.720367,175.233337 110.602074,176.578293 
	C110.179329,181.384552 110.464195,186.263641 109.881744,191.042099 
	C109.366905,195.265793 110.065224,197.865311 114.964851,197.296326 
	C113.683411,216.488159 108.677567,230.370529 103.341316,232.138870 
	C103.341316,221.151291 103.091194,209.841339 103.394684,198.546249 
	C103.980942,176.727417 104.837234,154.915253 105.728729,133.106323 
	C105.800308,131.355377 106.737595,128.335693 107.727188,128.133804 
	C115.277763,126.593307 122.941338,125.606705 131.015366,124.380043 
	C129.382339,132.210220 127.945267,139.100876 126.356171,146.720413 
	C133.588959,145.650040 139.770676,144.479202 146.007324,143.902283 
	C150.164246,143.517746 152.138611,141.847427 152.912659,137.674377 
	C154.733475,127.857956 156.995239,118.123634 159.053223,108.350746 
	C159.889450,104.379738 160.659744,100.394844 161.667099,95.386932 
	C149.821442,97.307602 139.037231,99.056168 127.438744,100.988678 
M162.416763,157.482971 
	C162.416763,157.482971 162.525925,157.420486 162.416763,157.482971 
M391.516174,123.423462 
	C391.516174,123.423462 391.574249,123.526138 391.516174,123.423462 
z"/>
<path fill="#050505" opacity="1.000000" stroke="none" 
	d="
M1.000001,318.468689 
	C3.114609,317.819550 5.229215,317.639038 7.638285,317.433441 
	C7.823511,315.014526 7.995907,312.763153 8.192120,310.200775 
	C23.377333,310.200775 38.419712,310.200775 53.761200,310.200775 
	C53.761200,315.588715 53.761200,320.850586 53.761200,326.707733 
	C43.131798,326.707733 32.415600,326.707733 21.421898,326.707733 
	C21.421898,336.680573 21.421898,346.064270 21.421898,355.763428 
	C26.529482,355.763428 31.437828,355.763428 36.764610,355.763428 
	C36.764610,352.362030 36.764610,348.991058 36.764610,345.260406 
	C35.272175,345.016449 33.716324,344.762115 31.982985,344.478760 
	C31.982985,342.476715 31.982985,340.695160 31.982985,338.500549 
	C39.093307,338.500549 46.143288,338.500549 53.630344,338.500549 
	C53.630344,349.715332 53.630344,361.084167 53.630344,372.799133 
	C38.751556,372.799133 23.696724,372.799133 8.168978,372.799133 
	C8.038839,370.697510 7.900679,368.466370 7.723767,365.609406 
	C5.684733,365.609406 3.763417,365.609406 1.421050,365.804688 
	C1.000000,350.312439 1.000000,334.624878 1.000001,318.468689 
z"/>
<path fill="#090909" opacity="1.000000" stroke="none" 
	d="
M413.824738,314.978912 
	C414.589203,313.149445 415.353668,311.320007 416.968262,309.542664 
	C429.277588,309.612946 440.737000,309.671051 452.195496,309.590912 
	C453.415649,309.582397 454.630188,308.765533 455.847321,308.323669 
	C456.231232,308.467499 456.615112,308.611359 456.999512,309.377594 
	C457.000000,312.041656 457.000000,314.083344 456.537628,316.694580 
	C444.539062,317.264130 433.002899,317.264130 421.355225,317.264130 
	C421.355225,323.828461 421.355225,330.394470 421.355225,337.414154 
	C430.570953,337.414154 439.503906,337.414154 448.707550,337.414154 
	C448.707550,339.941498 448.707550,342.012115 448.707550,344.717804 
	C439.483795,344.717804 430.433350,344.717804 421.353851,344.717804 
	C421.353851,349.590942 421.353851,353.824677 421.353851,358.539062 
	C425.770111,358.539062 429.900909,358.488068 434.029999,358.550140 
	C441.687195,358.665222 449.343384,358.846375 457.000000,359.000000 
	C457.000000,359.000000 457.000000,359.500000 456.755127,360.062805 
	C456.673523,364.083771 456.836761,367.541870 457.000000,371.000000 
	C457.000000,371.000000 457.000000,371.500000 457.000000,371.750000 
	C456.266815,372.129395 455.533630,372.258759 454.064941,372.342468 
	C440.237091,372.158081 427.144684,372.019318 414.052307,371.880554 
	C414.052307,369.919373 414.052307,367.958221 414.052307,365.893127 
	C411.659607,365.692871 409.712677,365.529938 407.402161,365.336548 
	C407.402161,349.192017 407.402161,333.196167 408.068787,316.926300 
	C410.431885,316.094513 412.128296,315.536713 413.824738,314.978912 
z"/>
<path fill="#FBFBFB" opacity="1.000000" stroke="none" 
	d="
M457.000000,358.531372 
	C449.343384,358.846375 441.687195,358.665222 434.029999,358.550140 
	C429.900909,358.488068 425.770111,358.539062 421.353851,358.539062 
	C421.353851,353.824677 421.353851,349.590942 421.353851,344.717804 
	C430.433350,344.717804 439.483795,344.717804 448.707550,344.717804 
	C448.707550,342.012115 448.707550,339.941498 448.707550,337.414154 
	C439.503906,337.414154 430.570953,337.414154 421.355225,337.414154 
	C421.355225,330.394470 421.355225,323.828461 421.355225,317.264130 
	C433.002899,317.264130 444.539062,317.264130 456.537628,317.132080 
	C457.000000,330.687561 457.000000,344.375122 457.000000,358.531372 
z"/>
<path fill="#535353" opacity="1.000000" stroke="none" 
	d="
M457.000000,370.541931 
	C456.836761,367.541870 456.673523,364.083771 456.755127,360.312805 
	C457.000000,363.361298 457.000000,366.722565 457.000000,370.541931 
z"/>
<path fill="#E7E7E7" opacity="1.000000" stroke="none" 
	d="
M1.500000,1.000000 
	C1.862025,1.559723 1.724050,2.119447 1.293037,2.839585 
	C1.000000,2.333333 1.000000,1.666667 1.500000,1.000000 
z"/>
<path fill="#D7D7D7" opacity="1.000000" stroke="none" 
	d="
M1.000001,457.500000 
	C1.278514,457.175354 1.557024,457.350739 1.917768,457.763062 
	C1.666667,458.000000 1.333333,458.000000 1.000001,457.500000 
z"/>
<path fill="#D7D7D7" opacity="1.000000" stroke="none" 
	d="
M455.250000,458.000000 
	C455.387360,457.834198 455.774719,457.668365 456.081055,457.751282 
	C456.000000,458.000000 455.500000,458.000000 455.250000,458.000000 
z"/>
<path fill="#040404" opacity="1.000000" stroke="none" 
	d="
M165.098480,159.758392 
	C165.110336,158.433792 165.122177,157.109177 165.252625,155.037109 
	C165.501328,151.184479 165.631454,148.079315 165.761566,144.974152 
	C165.882614,143.588715 166.003662,142.203262 166.199936,140.072693 
	C166.270782,137.865906 166.266418,136.404236 166.262039,134.942581 
	C167.187393,122.507233 168.223984,110.078835 169.001602,97.634254 
	C169.585907,88.283211 170.755188,86.975922 179.935272,86.975647 
	C212.423203,86.974693 244.911118,86.976578 277.399048,86.986618 
	C285.204681,86.989029 286.576538,88.482399 287.038849,96.176590 
	C288.296997,117.113922 289.704956,138.042252 290.586334,159.452972 
	C288.965729,159.854996 287.803833,159.842438 286.660156,159.691696 
	C271.864746,157.741425 259.445343,167.213013 257.447357,181.989914 
	C255.893494,184.077332 254.339645,186.164749 252.163696,188.419525 
	C250.700912,188.775711 249.860245,188.964569 249.019577,189.153412 
	C234.987885,189.129456 220.956207,189.105499 206.176926,188.920319 
	C203.945923,188.184158 202.462509,187.609253 200.979111,187.034332 
	C200.524384,186.438629 200.069641,185.842926 199.405640,184.651337 
	C197.738754,175.815613 194.943710,168.401413 186.615707,164.041901 
	C184.413910,162.893555 182.621140,161.313446 180.643890,161.032761 
	C175.505341,160.303314 170.285736,160.144745 165.098480,159.758392 
M257.916748,143.537552 
	C268.447327,143.850830 268.307495,142.243164 272.397095,134.423859 
	C273.356720,132.589050 272.765533,128.924652 271.441589,127.235626 
	C270.378540,125.879456 267.059296,125.692520 264.865417,125.969688 
	C261.945038,126.338646 259.107727,127.560173 256.302338,128.598175 
	C252.243362,130.100006 246.814377,130.394379 247.113144,136.610840 
	C247.418289,142.960190 252.796188,142.528427 257.916748,143.537552 
M208.180832,134.307175 
	C206.531113,132.843491 205.090164,130.958527 203.183380,130.013565 
	C200.227936,128.548920 196.977280,127.654579 193.810181,126.649529 
	C190.558899,125.617760 187.162415,123.713921 184.208420,127.255104 
	C181.198441,130.863388 183.133621,134.088150 185.101196,137.287155 
	C185.536621,137.995071 185.897797,138.751068 186.361771,139.438629 
	C189.601044,144.238861 203.700256,144.770920 207.077332,140.050797 
	C208.025360,138.725769 208.003571,136.706879 208.180832,134.307175 
z"/>
<path fill="#060606" opacity="1.000000" stroke="none" 
	d="
M315.056488,98.201439 
	C316.429993,98.486244 317.803467,98.771042 319.859589,99.182411 
	C321.380646,99.318199 322.219055,99.327423 323.057495,99.336655 
	C324.844330,99.743500 326.631165,100.150345 329.087769,100.798851 
	C332.851868,101.901741 335.946136,102.762970 339.040436,103.624207 
	C346.664307,109.020721 354.288147,114.417244 362.279785,119.583237 
	C362.647522,119.352707 362.703979,119.494064 362.703979,119.494064 
	C362.962250,120.431091 363.073944,121.441719 363.501862,122.293541 
	C367.016632,129.290863 370.590210,136.258652 374.254333,143.863434 
	C374.591461,144.989822 374.820129,145.488174 375.048798,145.986526 
	C375.499115,151.349457 375.949402,156.712402 376.438110,162.801056 
	C376.661591,164.348236 376.846649,165.169693 377.031738,165.991135 
	C377.033752,168.363159 377.035767,170.735199 377.032410,173.917511 
	C377.119232,175.495667 377.211456,176.263535 377.303650,177.031403 
	C377.328186,181.042252 377.352753,185.053085 377.381317,189.889343 
	C377.597717,192.807709 377.810089,194.900696 378.022430,196.993668 
	C378.098358,201.679077 378.174316,206.364471 378.263947,211.935440 
	C378.527313,215.878159 378.776978,218.935333 379.026672,221.992493 
	C379.016510,224.694534 379.006348,227.396591 378.979919,230.876297 
	C379.055878,232.111053 379.148102,232.568146 379.240356,233.025253 
	C379.197876,233.765930 379.155426,234.506622 379.107117,236.064972 
	C379.418701,241.916733 379.736176,246.950821 380.053650,251.984894 
	C380.096985,256.673340 380.140320,261.361786 380.185883,266.941101 
	C380.482025,270.881470 380.775940,273.930969 381.069855,276.980469 
	C381.112335,281.672241 381.154846,286.364044 381.199524,291.917053 
	C381.206573,294.550018 381.324219,296.335022 381.118622,298.082001 
	C381.078766,298.420685 379.777679,298.610962 379.058350,298.869720 
	C378.636932,298.268341 378.215515,297.666962 377.463867,296.667694 
	C376.405426,295.558716 375.677216,294.847595 374.949005,294.136475 
	C360.455566,277.436951 345.794586,260.877838 331.594543,243.932434 
	C328.326172,240.032150 325.504181,235.060425 324.406006,230.150284 
	C316.317902,193.986542 308.723602,157.712372 300.963257,121.475258 
	C299.398193,114.167213 297.830841,106.859108 296.175934,99.571152 
	C295.575378,96.926376 295.794800,95.222511 299.800415,96.093590 
	C300.986755,96.215195 301.521271,96.201210 302.055756,96.187225 
	C303.107056,96.472069 304.158386,96.756920 305.926697,97.166229 
	C308.110931,97.377296 309.578156,97.463890 311.045410,97.550484 
	C311.475464,97.693726 311.905518,97.836967 312.873535,98.155632 
	C313.959839,98.287849 314.508179,98.244644 315.056488,98.201439 
M354.364777,146.261108 
	C354.386810,141.275787 354.347504,136.289139 354.453491,131.305603 
	C354.518890,128.231171 353.525696,126.291801 350.203644,125.698311 
	C343.676300,124.532196 337.218170,122.960808 330.675140,121.906189 
	C325.917999,121.139427 324.738495,122.481194 325.175934,127.402893 
	C325.690643,133.193924 326.377625,138.969788 326.880005,144.761765 
	C327.146515,147.834274 328.475891,149.611755 331.693115,150.050293 
	C337.114319,150.789291 342.524811,151.642700 347.904755,152.637466 
	C352.420532,153.472412 354.632660,151.886658 354.364777,146.261108 
M345.571106,215.048996 
	C346.868011,221.392960 347.151947,228.235123 354.298492,232.502228 
	C354.298492,227.970230 354.358612,224.017075 354.287262,220.066299 
	C354.073822,208.248520 353.911743,196.427673 353.452789,184.618790 
	C353.384369,182.857941 352.156799,179.999954 350.895355,179.638336 
	C346.849854,178.478607 342.536835,178.252274 337.531891,177.555008 
	C340.247223,190.299713 342.796936,202.267029 345.571106,215.048996 
z"/>
<path fill="#060606" opacity="1.000000" stroke="none" 
	d="
M127.845871,100.896706 
	C139.037231,99.056168 149.821442,97.307602 161.667099,95.386932 
	C160.659744,100.394844 159.889450,104.379738 159.053223,108.350746 
	C156.995239,118.123634 154.733475,127.857956 152.912659,137.674377 
	C152.138611,141.847427 150.164246,143.517746 146.007324,143.902283 
	C139.770676,144.479202 133.588959,145.650040 126.356171,146.720413 
	C127.945267,139.100876 129.382339,132.210220 131.015366,124.380043 
	C122.941338,125.606705 115.277763,126.593307 107.727188,128.133804 
	C106.737595,128.335693 105.800308,131.355377 105.728729,133.106323 
	C104.837234,154.915253 103.980942,176.727417 103.394684,198.546249 
	C103.091194,209.841339 103.341316,221.151291 103.341316,232.138870 
	C108.677567,230.370529 113.683411,216.488159 114.964851,197.296326 
	C110.065224,197.865311 109.366905,195.265793 109.881744,191.042099 
	C110.464195,186.263641 110.179329,181.384552 110.602074,176.578293 
	C110.720367,175.233337 111.836815,173.012665 112.779419,172.851120 
	C123.540665,171.007080 134.356903,169.484024 146.139816,167.729126 
	C144.977875,173.479599 144.060364,178.299622 143.024948,183.094177 
	C139.407776,199.843536 135.817108,216.599304 132.034760,233.311554 
	C131.469284,235.810120 130.411179,238.502197 128.769836,240.405121 
	C112.232803,259.577545 95.521370,278.599518 78.890907,297.691589 
	C78.358795,298.302460 78.169037,299.211578 77.819695,299.981659 
	C77.289101,299.708984 76.758507,299.436310 76.227913,299.163635 
	C76.227913,292.460724 76.015503,285.750000 76.262756,279.056213 
	C77.744965,238.929550 79.399849,198.809219 80.862617,158.681885 
	C81.895233,130.354843 100.578835,107.079048 127.845871,100.896706 
z"/>
<path fill="#050505" opacity="1.000000" stroke="none" 
	d="
M153.701202,348.069061 
	C153.452621,349.674591 153.204041,351.280121 152.882080,353.359497 
	C148.626099,353.359497 144.491455,353.490479 140.379181,353.245636 
	C139.585129,353.198364 138.878677,351.680145 138.142166,350.011780 
	C137.474960,348.047180 136.797394,346.911316 136.119827,345.775421 
	C135.555206,347.107269 134.990585,348.439087 134.425949,349.770935 
	C134.364716,351.577728 134.303482,353.384521 134.214050,356.032166 
	C134.186890,361.942596 134.187943,367.012115 134.189011,372.081665 
	C134.189011,372.081665 134.052979,372.101837 133.607651,372.245850 
	C127.062546,372.389862 120.962776,372.389862 114.822540,372.389862 
	C114.822540,351.158386 114.822540,330.518982 114.822540,309.721954 
	C121.518997,309.721954 127.806107,309.721954 134.093216,309.721954 
	C134.115875,309.936127 134.138519,310.150299 134.182465,310.920959 
	C134.271545,312.023438 134.339340,312.569458 134.407135,313.115479 
	C134.357483,313.312256 134.307831,313.509033 134.300354,314.111328 
	C134.342529,314.516815 134.407608,314.739197 134.407608,314.739197 
	C134.325165,318.756622 137.401154,316.567688 139.547943,317.525391 
	C140.079163,319.696167 139.826721,321.558014 140.328156,323.187958 
	C140.640747,324.204102 142.092148,324.869904 143.032486,325.692932 
	C145.059799,325.742737 147.087097,325.792572 149.905609,325.763763 
	C151.152817,322.799255 151.608856,319.913391 152.064880,317.027527 
	C153.501480,317.027527 154.938095,317.027527 157.155655,317.027527 
	C157.155655,315.194092 157.155655,313.513977 157.332397,311.070038 
	C163.981583,309.978729 170.454025,309.651215 176.891754,309.325439 
	C176.891754,330.918732 176.891754,351.558502 176.891754,372.112335 
	C170.278961,372.112335 164.040482,372.112335 157.722748,372.112335 
	C157.426544,370.228577 157.174423,368.625275 156.922318,367.022003 
	C157.001038,365.937439 157.079773,364.852905 157.202881,363.067383 
	C157.120651,360.303711 156.994019,358.240967 156.867386,356.178253 
	C156.907654,355.538086 156.947922,354.897949 157.096298,353.824158 
	C157.113495,352.600128 157.022552,351.809723 156.931625,351.019348 
	C157.005707,350.261444 157.079773,349.503571 157.160980,347.993408 
	C156.302872,346.768921 155.437607,346.296753 154.572327,345.824585 
	C154.281952,346.572723 153.991577,347.320892 153.701202,348.069061 
z"/>
<path fill="#090909" opacity="1.000000" stroke="none" 
	d="
M87.009323,371.977844 
	C87.014648,368.624359 87.019974,365.270905 87.056274,361.132202 
	C87.014366,359.892883 86.941483,359.438812 86.868607,358.984772 
	C87.165657,353.034668 82.802147,357.148346 80.083733,355.261719 
	C80.083733,361.147430 80.083733,366.149536 79.596321,371.712799 
	C72.675888,372.273956 66.242867,372.273956 59.803848,372.273956 
	C59.803848,351.120239 59.803848,330.563782 59.803848,309.568787 
	C71.282898,309.568787 82.408913,309.510803 93.533844,309.595856 
	C98.333015,309.632538 103.129913,309.965118 107.927849,310.163300 
	C107.885056,328.576324 107.850807,346.989410 107.787971,365.402374 
	C107.780640,367.549927 107.615379,369.696991 106.827194,372.153015 
	C99.757141,372.300476 93.383232,372.139160 87.009323,371.977844 
M86.234352,327.877258 
	C81.450729,326.184357 78.608131,330.009766 76.766380,332.701691 
	C75.260132,334.903198 76.459717,338.956024 76.459717,341.598022 
	C79.598839,340.462128 81.760719,339.022491 83.862549,339.105438 
	C85.936470,339.187256 87.949631,340.809540 90.725189,342.097351 
	C89.807343,338.132690 94.010880,333.326599 87.440536,330.768921 
	C87.029305,330.608856 87.087196,329.243713 86.234352,327.877258 
M72.264565,321.868683 
	C72.339790,323.258972 72.415016,324.649261 72.492790,326.086609 
	C74.915634,326.086609 76.817757,326.086609 78.820450,326.086609 
	C78.820450,324.207367 78.820450,322.607880 78.820450,320.203705 
	C76.548378,320.539581 74.566261,320.832611 72.264565,321.868683 
M93.810028,326.218719 
	C94.202202,324.485535 94.594383,322.752380 95.050072,320.738525 
	C92.223434,320.738525 90.330338,320.738525 88.379272,320.738525 
	C88.379272,322.730316 88.379272,324.328369 88.379272,326.350830 
	C90.084145,326.350830 91.558678,326.350830 93.810028,326.218719 
z"/>
<path fill="#060606" opacity="1.000000" stroke="none" 
	d="
M183.962875,372.096191 
	C183.944962,351.669495 183.927032,331.242767 184.395523,310.261810 
	C200.300720,309.707550 215.719482,309.707550 231.154526,309.707550 
	C231.154526,315.507599 231.154526,320.782776 231.154526,326.057953 
	C230.050323,326.068298 228.946106,326.078674 227.096878,326.056641 
	C225.893860,326.083160 225.435867,326.142120 224.977875,326.201050 
	C218.526093,326.201050 212.074310,326.201050 205.243378,326.201050 
	C205.243378,328.347687 205.243378,330.227295 205.243378,332.617584 
	C213.573944,332.617584 221.844818,332.617584 230.742874,333.078613 
	C231.370056,338.731506 231.370056,343.923309 231.370056,349.472168 
	C223.429535,349.472168 216.185425,349.397430 208.945633,349.541473 
	C207.652390,349.567230 206.377151,350.498657 205.093613,351.011902 
	C205.022659,352.460266 204.951691,353.908661 204.851273,355.958038 
	C213.523804,355.958038 221.852966,355.958038 230.787598,356.410675 
	C231.393036,361.929474 231.393036,366.995636 231.393036,372.096191 
	C215.181412,372.096191 199.572144,372.096191 183.962875,372.096191 
z"/>
<path fill="#0B0B0B" opacity="1.000000" stroke="none" 
	d="
M281.225647,372.077698 
	C281.019348,372.121368 280.813049,372.165009 279.868561,372.253174 
	C266.058716,372.297638 252.987076,372.297638 239.635986,372.297638 
	C239.635986,351.042816 239.635986,330.455841 239.635986,309.868866 
	C239.635986,309.868866 239.875900,309.884247 240.349487,309.758179 
	C252.711533,309.635406 264.600311,309.596832 276.488068,309.688568 
	C278.216125,309.701904 279.939362,310.338379 281.664825,310.686523 
	C281.628052,311.905396 281.591248,313.124268 281.654602,315.097046 
	C283.868652,316.129242 285.982513,316.407593 288.096405,316.685944 
	C288.194855,323.259949 288.293304,329.833954 287.832642,336.876587 
	C285.451691,337.884552 283.629822,338.423859 281.807922,338.963196 
	C281.688507,340.559265 281.569092,342.155304 281.422821,344.110168 
	C283.761017,344.364960 285.810883,344.588318 288.452301,344.876160 
	C288.452301,351.455200 288.452301,357.984894 287.875946,364.986237 
	C285.455566,365.955780 283.611572,366.453674 281.767548,366.951569 
	C281.675446,367.703491 281.583344,368.455444 281.453888,369.799377 
	C281.352875,370.953461 281.289276,371.515594 281.225647,372.077698 
M271.512390,344.618683 
	C265.591705,344.618683 259.670990,344.618683 253.929108,344.618683 
	C253.929108,352.023956 253.929108,358.607574 253.929108,365.191620 
	C260.894348,365.191620 267.463959,365.191620 274.434479,365.191620 
	C274.434479,358.877045 274.504669,352.910858 274.349609,346.950531 
	C274.329224,346.166229 273.157135,345.411896 271.512390,344.618683 
M269.486877,316.666901 
	C264.244995,316.666901 259.003113,316.666901 253.938950,316.666901 
	C253.938950,323.986694 253.938950,330.528198 253.938950,337.054810 
	C260.893280,337.054810 267.452515,337.054810 274.451019,337.054810 
	C274.451019,331.322876 274.278290,325.878784 274.516663,320.452759 
	C274.656647,317.266266 273.418182,316.239044 269.486877,316.666901 
z"/>
<path fill="#101010" opacity="1.000000" stroke="none" 
	d="
M390.739960,230.059204 
	C390.277130,238.759903 389.814331,247.460587 388.963318,256.549805 
	C388.203522,256.921295 387.831909,256.904205 387.460266,256.887146 
	C386.643890,227.469086 385.955902,198.046555 384.935791,168.635559 
	C384.614197,159.363785 384.317963,149.926590 382.385193,140.913544 
	C379.441345,127.185387 371.471802,116.115654 360.193420,106.799759 
	C358.873108,105.895714 357.987610,105.375450 357.102081,104.855194 
	C357.102081,104.855186 357.042877,104.979591 356.957886,104.633209 
	C355.932312,103.778938 354.991730,103.271034 354.051117,102.763138 
	C351.532013,101.322990 349.012939,99.882835 345.911560,98.165581 
	C344.221375,97.579529 343.113525,97.270576 342.005646,96.961632 
	C335.276520,95.273117 328.547363,93.584602 321.218933,91.723045 
	C320.060822,91.574745 319.502045,91.599495 318.943237,91.624245 
	C317.211029,91.162064 315.478821,90.699883 313.382721,89.836227 
	C313.017548,89.250778 313.016296,89.066803 313.015076,88.882820 
	C315.388458,88.874374 317.761871,88.865929 320.707275,89.168266 
	C321.846375,89.355652 322.413422,89.232246 322.980469,89.108841 
	C326.650635,89.277855 330.320770,89.446877 334.514313,89.977669 
	C335.680389,90.290237 336.323120,90.241035 336.965820,90.191833 
	C338.664490,90.310150 340.363190,90.428474 342.540070,90.935181 
	C343.670746,91.260643 344.323181,91.197716 344.975647,91.134796 
	C367.103149,92.823753 386.523773,110.481766 392.614807,135.041168 
	C392.895264,136.156921 393.076141,136.591156 393.257080,137.025391 
	C393.295471,137.771103 393.333862,138.516830 393.400024,140.053802 
	C393.535034,146.583267 393.642303,152.321487 393.749573,158.059692 
	C393.417938,163.393677 393.086273,168.727646 392.664398,174.844772 
	C392.639832,177.105209 392.705505,178.582520 392.771179,180.059814 
	C392.428131,186.726364 392.085083,193.392899 391.628479,200.843872 
	C391.579773,203.438599 391.644653,205.248886 391.709503,207.059189 
	C391.426880,212.735352 391.144257,218.411499 390.751892,224.858856 
	C390.674774,227.106430 390.707367,228.582809 390.739960,230.059204 
z"/>
<path fill="#0C0C0C" opacity="1.000000" stroke="none" 
	d="
M351.057465,309.841888 
	C351.129639,316.272003 351.201843,322.702118 350.844421,329.696869 
	C347.681061,330.928497 342.791656,328.902985 344.440826,335.044373 
	C344.389252,335.776001 344.337708,336.507660 344.249573,338.036438 
	C344.213043,340.597992 344.213043,342.362396 344.213043,344.214996 
	C341.623566,344.463654 339.549835,344.662750 337.257172,344.882904 
	C337.257172,347.122437 337.257172,349.076050 337.257172,351.029663 
	C336.704987,351.260895 336.152802,351.492096 335.024170,351.663727 
	C333.148315,352.020447 331.848969,352.436768 330.549591,352.853058 
	C330.434570,358.973145 330.319580,365.093201 329.664185,371.726562 
	C324.777161,372.097015 320.430542,371.954132 316.083893,371.811249 
	C316.095184,365.846436 316.106476,359.881592 316.037109,353.158875 
	C314.630280,352.241974 313.304108,352.082977 311.977905,351.923981 
	C310.650360,349.912903 309.322784,347.901825 307.995239,345.890747 
	C308.286011,345.590851 308.576813,345.290985 308.867615,344.991089 
	C306.802155,344.771149 304.736694,344.551178 302.133698,344.273956 
	C302.133698,341.406982 302.133698,338.649292 302.156616,335.042450 
	C302.579132,331.546997 301.767822,330.205658 298.766296,330.364471 
	C297.521515,330.430359 296.223083,329.481567 294.949036,328.994202 
	C295.007568,326.622772 295.066101,324.251373 295.153900,321.016235 
	C295.106842,318.099731 295.030579,316.046906 294.954285,313.994110 
	C295.085114,312.685120 295.215912,311.376129 295.374084,309.793213 
	C299.889984,309.793213 304.300293,309.793213 309.173767,309.793213 
	C309.173767,316.511078 309.173767,323.093018 309.173767,329.910858 
	C311.652466,330.233887 313.722778,330.503693 316.236267,330.831238 
	C316.236267,335.267456 316.236267,339.533020 316.236267,344.151703 
	C320.973022,344.151703 325.231354,344.151703 330.019287,344.151703 
	C330.019287,339.914551 330.019287,335.493378 330.019287,330.761353 
	C332.586884,330.533630 334.669037,330.348938 337.172150,330.126892 
	C337.172150,323.707794 337.172150,317.409149 337.564697,310.485107 
	C342.323975,309.853790 346.690704,309.847839 351.057465,309.841888 
z"/>
<path fill="#0F0F0F" opacity="1.000000" stroke="none" 
	d="
M66.886635,228.978134 
	C66.638123,224.275742 66.389603,219.573349 66.435455,214.164597 
	C66.471024,211.969193 66.212234,210.480164 65.953453,208.991119 
	C65.679489,202.287018 65.405525,195.582901 65.446686,188.126038 
	C65.467934,184.907822 65.174049,182.442368 64.880157,179.976929 
	C64.625061,175.600220 64.369972,171.223526 64.430420,166.091400 
	C64.462357,161.550507 64.178734,157.765045 63.895119,153.979584 
	C63.780346,150.641052 63.665577,147.302505 63.962959,143.336670 
	C64.364388,140.931076 64.353668,139.152802 64.342949,137.374527 
	C64.688751,135.543701 65.034554,133.712860 65.853043,131.365173 
	C66.787193,129.093521 67.248642,127.338722 67.710083,125.583923 
	C74.090179,106.502144 95.488365,91.097900 115.285599,90.943542 
	C123.068207,90.882858 130.844589,90.023239 138.736969,90.661919 
	C131.288223,92.569763 123.662178,93.966187 116.422256,96.476311 
	C88.918892,106.011887 73.302986,128.537704 72.218102,159.586746 
	C72.084282,163.416779 72.102341,167.252106 71.737457,171.779007 
	C71.560562,173.974228 71.696236,175.475433 71.831909,176.976624 
	C71.575577,187.020828 71.319244,197.065048 70.759277,207.733490 
	C70.582138,209.230804 70.708633,210.103897 70.835129,210.976974 
	C70.585037,220.689911 70.334961,230.402847 69.775513,240.687927 
	C69.588760,241.832474 69.711380,242.404846 69.834000,242.977234 
	C69.821960,245.321838 69.809914,247.666443 69.446503,250.385544 
	C68.713074,250.839020 68.331001,250.918015 67.948929,250.997009 
	C67.686119,246.605240 67.423309,242.213486 67.459122,237.093628 
	C67.467377,233.903076 67.177010,231.440613 66.886635,228.978134 
z"/>
<path fill="#0E0E0E" opacity="1.000000" stroke="none" 
	d="
M197.012314,185.005646 
	C197.202271,195.353287 193.203796,203.517975 183.883347,208.333969 
	C174.537521,213.163055 165.318665,212.316116 156.214783,205.827820 
	C153.411041,202.224625 151.022003,199.103027 148.632965,195.981430 
	C148.205429,194.243118 147.777908,192.504807 147.426880,190.073120 
	C147.394058,187.245758 147.284714,185.111755 147.175354,182.977768 
	C149.552490,178.059570 151.929626,173.141373 154.964600,168.086853 
	C156.088608,167.275970 156.554794,166.601425 157.020981,165.926895 
	C159.789658,164.694870 162.558334,163.462845 166.113297,162.115936 
	C173.883896,161.474457 180.629181,162.244263 186.822266,166.008453 
	C192.759689,171.139847 195.957886,177.484421 197.012314,185.005646 
M188.092010,184.813614 
	C185.142227,173.563507 175.923065,167.453949 166.407959,171.162308 
	C160.332718,173.530029 156.471298,178.630066 156.022903,185.300369 
	C155.607910,191.473892 158.100327,196.721802 163.583740,200.025620 
	C174.675751,206.708710 187.030914,199.455627 188.092010,184.813614 
z"/>
<path fill="#0E0E0E" opacity="1.000000" stroke="none" 
	d="
M300.138550,166.217453 
	C300.161682,166.761993 299.962372,167.593491 300.240540,167.809097 
	C307.249298,173.242264 309.553864,180.595566 308.876556,189.846039 
	C306.130920,195.395462 303.593933,200.213181 301.056946,205.030914 
	C292.325226,212.090057 282.621399,213.587967 272.645233,208.620346 
	C262.686432,203.661346 258.842499,194.750259 259.361633,183.105469 
	C262.912506,167.766098 273.093506,160.684891 289.065521,161.790314 
	C292.510956,163.373322 295.956390,164.956329 299.803650,166.362732 
	C300.205505,166.186096 300.138550,166.217453 300.138550,166.217453 
M271.829895,196.584732 
	C276.621124,202.120163 282.702423,203.538116 289.433533,201.408737 
	C295.934967,199.352020 299.524536,194.416580 300.063904,187.715210 
	C300.603790,181.007874 297.710724,175.781296 291.799591,172.397964 
	C285.524994,168.806595 277.831451,170.051483 272.648834,175.432648 
	C267.243866,181.044678 266.782684,188.339859 271.829895,196.584732 
z"/>
<path fill="#090909" opacity="1.000000" stroke="none" 
	d="
M386.366943,318.040833 
	C386.281708,335.734375 386.196503,353.427917 385.605865,371.659058 
	C380.745422,372.103729 376.390411,372.010864 372.035370,371.917969 
	C372.035370,353.692627 372.035370,335.467255 372.035370,316.680176 
	C368.115601,316.680176 364.526581,316.680176 360.162354,316.578735 
	C358.962189,314.398468 358.537201,312.319611 358.044128,309.907623 
	C372.639771,309.907623 386.337402,309.907623 400.035034,309.907623 
	C400.054962,311.713654 400.074860,313.519684 399.809387,315.805420 
	C399.005646,316.488098 398.487305,316.691071 397.968933,316.894043 
	C395.609955,316.822662 393.250977,316.751312 390.198853,316.644897 
	C388.459412,317.086853 387.413147,317.563843 386.366943,318.040833 
z"/>
<path fill="#101010" opacity="1.000000" stroke="none" 
	d="
M153.790298,206.020844 
	C153.327805,213.799927 152.876831,221.579727 152.390366,229.357315 
	C152.317841,230.516617 151.823181,231.695740 151.955750,232.814529 
	C153.293610,244.105789 147.763000,251.213089 138.809143,257.393799 
	C128.559784,264.468781 119.220055,272.858398 109.446236,280.627899 
	C107.292145,282.340240 104.974617,283.846985 101.567604,286.280273 
	C102.090988,283.978180 102.005325,282.769806 102.566643,282.122253 
	C111.936188,271.313965 121.232368,260.434509 130.892029,249.888855 
	C134.988556,245.416611 137.604462,240.519196 138.750244,234.645050 
	C140.660828,224.849884 142.749130,215.089355 144.655167,205.293335 
	C145.095551,203.030090 145.101883,200.682388 145.942627,198.238983 
	C148.981628,200.743225 151.385956,203.382034 153.790298,206.020844 
z"/>
<path fill="#101010" opacity="1.000000" stroke="none" 
	d="
M311.030579,196.953247 
	C311.210602,197.982101 311.390594,199.010956 311.499695,200.679352 
	C311.716339,202.049194 312.003845,202.779495 312.291351,203.509811 
	C314.622314,214.916260 316.745789,226.371521 319.410950,237.699341 
	C320.208130,241.087463 322.001434,244.547867 324.228149,247.238953 
	C333.026764,257.872681 342.209686,268.187653 351.162903,278.695129 
	C352.365112,280.106018 353.069550,281.941071 354.004486,283.579681 
	C353.517181,283.863190 353.029907,284.146698 352.542603,284.430206 
	C339.997437,274.416443 327.674774,264.103973 314.809631,254.519730 
	C308.720642,249.983582 305.476624,245.037521 305.330933,237.266159 
	C305.134979,226.811829 303.853119,216.377884 303.400909,205.358398 
	C305.030731,203.266571 306.244843,201.703613 307.579651,200.251587 
	C308.654297,199.082565 309.874786,198.047668 311.030579,196.953247 
z"/>
<path fill="#E7E7E7" opacity="1.000000" stroke="none" 
	d="
M107.903137,309.747009 
	C103.129913,309.965118 98.333015,309.632538 93.533844,309.595856 
	C82.408913,309.510803 71.282898,309.568787 59.803848,309.568787 
	C59.803848,330.563782 59.803848,351.120239 59.803848,372.273956 
	C66.242867,372.273956 72.675888,372.273956 79.573303,372.185822 
	C79.226540,372.725494 78.456268,373.827881 77.597397,373.901917 
	C72.988174,374.299103 68.349266,374.707092 63.735878,374.575592 
	C60.680958,374.488525 57.945866,373.425354 57.993565,369.290619 
	C58.211979,350.357056 58.366570,331.421906 58.361095,312.487427 
	C58.360165,309.274567 59.297359,307.952789 62.567497,307.971222 
	C76.529701,308.049866 90.492813,307.970428 104.454926,308.057098 
	C105.598686,308.064209 106.737381,308.886963 107.903137,309.747009 
z"/>
<path fill="#E7E7E7" opacity="1.000000" stroke="none" 
	d="
M156.636398,367.284332 
	C157.174423,368.625275 157.426544,370.228577 157.722748,372.112335 
	C164.040482,372.112335 170.278961,372.112335 176.891754,372.112335 
	C176.891754,351.558502 176.891754,330.918732 176.891754,309.325439 
	C170.454025,309.651215 163.981583,309.978729 157.217606,310.643677 
	C157.639313,309.994720 158.315704,308.187164 159.071686,308.153259 
	C164.556793,307.907074 170.075119,307.787598 175.540863,308.193939 
	C176.769913,308.285309 178.811234,310.597473 178.825729,311.905609 
	C179.039963,331.223602 178.949997,350.544769 179.002029,369.864990 
	C179.010101,372.860992 177.715042,374.073883 174.779694,374.011688 
	C170.451233,373.920044 166.119202,374.012665 161.788986,373.984100 
	C155.973053,373.945770 155.693787,373.597290 156.636398,367.284332 
z"/>
<path fill="#E7E7E7" opacity="1.000000" stroke="none" 
	d="
M134.029327,309.378937 
	C127.806107,309.721954 121.518997,309.721954 114.822540,309.721954 
	C114.822540,330.518982 114.822540,351.158386 114.822540,372.389862 
	C120.962776,372.389862 127.062546,372.389862 133.632141,372.310120 
	C133.907913,372.673920 133.717941,373.502960 133.519196,373.505096 
	C127.260956,373.571442 120.994843,373.690002 114.753197,373.360107 
	C114.093964,373.325287 113.079842,370.585449 113.070877,369.095490 
	C112.956680,350.115631 112.941162,331.134369 113.112114,312.155334 
	C113.124405,310.790833 114.675232,308.367401 115.695656,308.264130 
	C121.101463,307.717194 126.566002,307.705017 132.011520,307.656586 
	C132.658676,307.650848 133.313950,308.554047 134.029327,309.378937 
z"/>
<path fill="#E7E7E7" opacity="1.000000" stroke="none" 
	d="
M239.262741,310.003235 
	C239.635986,330.455841 239.635986,351.042816 239.635986,372.297638 
	C252.987076,372.297638 266.058716,372.297638 279.591248,372.405243 
	C278.954773,373.001953 277.861084,373.906311 276.759399,373.916229 
	C265.311096,374.019043 253.861328,373.946198 242.412338,373.999847 
	C239.652008,374.012787 237.981781,373.225220 237.990173,370.089630 
	C238.042145,350.676117 238.024490,331.262421 238.077545,311.848907 
	C238.079102,311.277740 238.607010,310.707977 239.262741,310.003235 
z"/>
<path fill="#262626" opacity="1.000000" stroke="none" 
	d="
M300.197083,166.228226 
	C298.776123,157.447372 297.319672,148.631058 295.978699,139.797195 
	C295.594604,137.266754 295.544708,134.685593 295.940216,131.981674 
	C299.989136,143.366257 301.940277,155.271896 304.523712,167.841934 
	C302.768372,166.844254 301.611725,166.186844 300.296814,165.873444 
	C300.138550,166.217453 300.205505,166.186096 300.197083,166.228226 
z"/>
<path fill="#262626" opacity="1.000000" stroke="none" 
	d="
M157.022385,165.539307 
	C156.554794,166.601425 156.088608,167.275970 155.282227,167.963501 
	C151.667053,166.068390 152.780243,163.115433 153.377548,160.497147 
	C154.940659,153.645432 156.709991,146.840378 158.431946,140.025528 
	C158.801422,138.563278 159.317780,137.138123 160.504196,135.860916 
	C159.464584,145.690811 161.437592,155.796188 157.022385,165.539307 
z"/>
<path fill="#E7E7E7" opacity="1.000000" stroke="none" 
	d="
M184.039719,372.494629 
	C199.572144,372.096191 215.181412,372.096191 231.393036,372.096191 
	C231.393036,366.995636 231.393036,361.929474 231.264801,356.405426 
	C231.757812,357.764526 232.899200,359.576080 232.918289,361.399353 
	C233.076096,376.470947 233.744003,373.826965 220.602310,373.969269 
	C210.135315,374.082642 199.665649,374.041016 189.198349,373.942963 
	C187.501297,373.927063 185.810349,373.259430 184.039719,372.494629 
z"/>
<path fill="#E7E7E7" opacity="1.000000" stroke="none" 
	d="
M231.550171,325.974731 
	C231.154526,320.782776 231.154526,315.507599 231.154526,309.707550 
	C215.719482,309.707550 200.300720,309.707550 184.414764,309.784790 
	C184.934357,309.241577 185.916672,308.089081 186.908554,308.080841 
	C200.860779,307.964539 214.815063,307.942017 228.766312,308.108459 
	C230.062210,308.123932 232.430847,309.552826 232.450180,310.369324 
	C232.572617,315.536499 232.173111,320.716034 231.550171,325.974731 
z"/>
<path fill="#D7D7D7" opacity="1.000000" stroke="none" 
	d="
M289.243011,161.573151 
	C273.093506,160.684891 262.912506,167.766098 259.310120,182.661835 
	C258.817780,182.839508 258.523407,182.703827 257.838196,182.279022 
	C259.445343,167.213013 271.864746,157.741425 286.660156,159.691696 
	C287.803833,159.842438 288.965729,159.854996 290.533264,159.906815 
	C290.438446,160.373245 289.929474,160.864624 289.243011,161.573151 
z"/>
<path fill="#E7E7E7" opacity="1.000000" stroke="none" 
	d="
M399.952942,309.510498 
	C386.337402,309.907623 372.639771,309.907623 358.044128,309.907623 
	C358.537201,312.319611 358.962189,314.398468 359.708435,316.683319 
	C358.829193,316.192169 356.547394,315.348938 356.618378,314.823547 
	C356.901001,312.731323 357.750275,310.648834 358.761749,308.762177 
	C359.069824,308.187561 360.571899,308.059174 361.528351,308.055603 
	C373.618011,308.010406 385.708038,308.007538 397.797546,308.071594 
	C398.490448,308.075256 399.179810,308.750610 399.952942,309.510498 
z"/>
<path fill="#E7E7E7" opacity="1.000000" stroke="none" 
	d="
M205.556274,351.012756 
	C206.377151,350.498657 207.652390,349.567230 208.945633,349.541473 
	C216.185425,349.397430 223.429535,349.472168 231.370056,349.472168 
	C231.370056,343.923309 231.370056,338.731506 231.214600,333.064270 
	C232.833221,332.189209 232.954239,332.187958 232.971832,333.880035 
	C233.030350,339.506836 232.993958,345.134583 232.993958,351.013611 
	C223.801910,351.013611 214.910431,351.013611 205.556274,351.012756 
z"/>
<path fill="#E7E7E7" opacity="1.000000" stroke="none" 
	d="
M281.740631,310.245422 
	C279.939362,310.338379 278.216125,309.701904 276.488068,309.688568 
	C264.600311,309.596832 252.711533,309.635406 240.345947,309.638000 
	C240.764099,309.100952 241.655411,308.093079 242.555283,308.085358 
	C254.639984,307.981750 266.726257,307.975281 278.810638,308.096191 
	C279.818146,308.106293 280.814758,309.209137 281.740631,310.245422 
z"/>
<path fill="#E7E7E7" opacity="1.000000" stroke="none" 
	d="
M414.092041,372.291840 
	C427.144684,372.019318 440.237091,372.158081 453.714661,372.449158 
	C452.960968,373.061279 451.825562,373.910431 450.682770,373.920410 
	C439.476990,374.018463 428.269806,374.008331 417.063843,373.919525 
	C416.083344,373.911743 415.109009,373.126984 414.092041,372.291840 
z"/>
<path fill="#E7E7E7" opacity="1.000000" stroke="none" 
	d="
M455.535095,308.211639 
	C454.630188,308.765533 453.415649,309.582397 452.195496,309.590912 
	C440.737000,309.671051 429.277588,309.612946 417.378113,309.412292 
	C418.265045,308.823761 419.590332,308.073273 420.919830,308.065735 
	C432.353760,308.000946 443.788391,308.070312 455.535095,308.211639 
z"/>
<path fill="#B2B2B2" opacity="1.000000" stroke="none" 
	d="
M197.375549,184.983734 
	C195.957886,177.484421 192.759689,171.139847 186.837219,165.636627 
	C186.921463,164.695221 186.931076,164.448700 186.940689,164.202179 
	C194.943710,168.401413 197.738754,175.815613 199.194046,184.464905 
	C198.707413,184.903549 198.223083,184.932693 197.375549,184.983734 
z"/>
<path fill="#B2B2B2" opacity="1.000000" stroke="none" 
	d="
M311.063629,196.602356 
	C309.874786,198.047668 308.654297,199.082565 307.579651,200.251587 
	C306.244843,201.703613 305.030731,203.266571 303.453094,204.896393 
	C302.678467,205.030548 302.215240,205.049942 301.404480,205.050125 
	C303.593933,200.213181 306.130920,195.395462 308.892395,190.294128 
	C309.776825,192.090851 310.436768,194.171158 311.063629,196.602356 
z"/>
<path fill="#E7E7E7" opacity="1.000000" stroke="none" 
	d="
M186.615707,164.041901 
	C186.931076,164.448700 186.921463,164.695221 186.896896,165.313568 
	C180.629181,162.244263 173.883896,161.474457 166.437744,161.944626 
	C165.709641,161.370483 165.443375,160.852768 165.137787,160.046722 
	C170.285736,160.144745 175.505341,160.303314 180.643890,161.032761 
	C182.621140,161.313446 184.413910,162.893555 186.615707,164.041901 
z"/>
<path fill="#535353" opacity="1.000000" stroke="none" 
	d="
M67.726852,251.328430 
	C68.331001,250.918015 68.713074,250.839020 69.382233,250.818726 
	C69.669312,255.764938 69.669312,260.652466 69.669312,265.540009 
	C69.181046,265.591339 68.692787,265.642670 68.204521,265.694000 
	C67.971268,261.015961 67.738022,256.337891 67.726852,251.328430 
z"/>
<path fill="#E7E7E7" opacity="1.000000" stroke="none" 
	d="
M87.065262,372.383911 
	C93.383232,372.139160 99.757141,372.300476 106.596680,372.545837 
	C105.635223,373.083893 104.191017,373.970490 102.784126,373.914764 
	C97.556503,373.707733 92.341164,373.190674 87.065262,372.383911 
z"/>
<path fill="#E7E7E7" opacity="1.000000" stroke="none" 
	d="
M337.615967,350.938232 
	C337.257172,349.076050 337.257172,347.122437 337.257172,344.882904 
	C339.549835,344.662750 341.623566,344.463654 344.213043,344.214996 
	C344.213043,342.362396 344.213043,340.597992 344.350708,338.392181 
	C347.890839,343.199646 346.729218,345.268555 339.700043,346.479340 
	C339.125061,347.935181 338.549927,349.390961 337.615967,350.938232 
z"/>
<path fill="#E7E7E7" opacity="1.000000" stroke="none" 
	d="
M394.062866,157.861511 
	C393.642303,152.321487 393.535034,146.583267 393.563324,140.391190 
	C393.924652,145.845993 394.150421,151.754654 394.062866,157.861511 
z"/>
<path fill="#E7E7E7" opacity="1.000000" stroke="none" 
	d="
M380.347626,251.691650 
	C379.736176,246.950821 379.418701,241.916733 379.204651,236.424789 
	C379.866241,237.664185 380.816681,239.342529 380.899719,241.062744 
	C381.065460,244.495804 380.755249,247.951859 380.347626,251.691650 
z"/>
<path fill="#E7E7E7" opacity="1.000000" stroke="none" 
	d="
M134.572174,371.968414 
	C134.187943,367.012115 134.186890,361.942596 134.298828,356.415405 
	C134.593002,361.256866 134.774170,366.556030 134.572174,371.968414 
z"/>
<path fill="#B2B2B2" opacity="1.000000" stroke="none" 
	d="
M154.164352,206.028748 
	C151.385956,203.382034 148.981628,200.743225 146.252930,197.966431 
	C146.576035,197.206345 147.223495,196.584259 148.251953,195.971802 
	C151.022003,199.103027 153.411041,202.224625 155.915909,205.662445 
	C155.533966,205.998001 155.036179,206.017334 154.164352,206.028748 
z"/>
<path fill="#E7E7E7" opacity="1.000000" stroke="none" 
	d="
M316.117859,372.222992 
	C320.430542,371.954132 324.777161,372.097015 329.590271,372.196686 
	C327.356903,374.535309 320.117401,374.785858 316.117859,372.222992 
z"/>
<path fill="#E7E7E7" opacity="1.000000" stroke="none" 
	d="
M350.968140,309.449524 
	C346.690704,309.847839 342.323975,309.853790 337.524506,310.030731 
	C337.450256,309.541077 337.828583,308.296967 338.164185,308.308380 
	C342.405975,308.452789 346.641602,308.778046 350.968140,309.449524 
z"/>
<path fill="#E7E7E7" opacity="1.000000" stroke="none" 
	d="
M372.083435,372.325012 
	C376.390411,372.010864 380.745422,372.103729 385.562744,372.130066 
	C383.516876,374.494629 376.445343,374.834869 372.083435,372.325012 
z"/>
<path fill="#E7E7E7" opacity="1.000000" stroke="none" 
	d="
M294.602570,329.006714 
	C296.223083,329.481567 297.521515,330.430359 298.766296,330.364471 
	C301.767822,330.205658 302.579132,331.546997 302.072510,334.598816 
	C298.859680,333.364319 295.753906,331.724365 292.230499,329.863861 
	C293.011749,329.538086 293.633942,329.278656 294.602570,329.006714 
z"/>
<path fill="#E7E7E7" opacity="1.000000" stroke="none" 
	d="
M379.027924,299.206757 
	C379.777679,298.610962 381.078766,298.420685 381.118622,298.082001 
	C381.324219,296.335022 381.206573,294.550018 381.317169,292.367004 
	C381.840668,295.781464 382.248688,299.607239 382.656708,303.432983 
	C382.053131,303.524872 381.449554,303.616791 380.846008,303.708679 
	C380.229828,302.320374 379.613647,300.932098 379.027924,299.206757 
z"/>
<path fill="#454545" opacity="1.000000" stroke="none" 
	d="
M63.721607,154.337738 
	C64.178734,157.765045 64.462357,161.550507 64.486565,165.642822 
	C64.000801,162.198425 63.774448,158.447159 63.721607,154.337738 
z"/>
<path fill="#E7E7E7" opacity="1.000000" stroke="none" 
	d="
M309.000916,89.999573 
	C307.032166,90.599319 305.063446,91.199074 302.545319,91.966187 
	C302.356323,90.481262 302.191895,89.189156 302.006348,87.731247 
	C304.071747,87.832314 305.672028,87.910614 307.652405,88.296494 
	C308.355347,89.069237 308.678131,89.534401 309.000916,89.999573 
z"/>
<path fill="#E7E7E7" opacity="1.000000" stroke="none" 
	d="
M344.770660,334.944336 
	C342.791656,328.902985 347.681061,330.928497 350.839355,330.170166 
	C350.628815,330.717621 350.059937,331.445801 349.344360,331.976074 
	C347.973785,332.991608 346.519836,333.894623 344.770660,334.944336 
z"/>
<path fill="#E7E7E7" opacity="1.000000" stroke="none" 
	d="
M379.312012,221.712646 
	C378.776978,218.935333 378.527313,215.878159 378.374573,212.386658 
	C378.846771,215.112473 379.222076,218.272644 379.312012,221.712646 
z"/>
<path fill="#E7E7E7" opacity="1.000000" stroke="none" 
	d="
M165.393143,145.080841 
	C165.631454,148.079315 165.501328,151.184479 165.186356,154.645004 
	C165.009247,151.729431 165.016983,148.458481 165.393143,145.080841 
z"/>
<path fill="#E7E7E7" opacity="1.000000" stroke="none" 
	d="
M142.970856,325.314026 
	C142.092148,324.869904 140.640747,324.204102 140.328156,323.187958 
	C139.826721,321.558014 140.079163,319.696167 139.926208,317.501190 
	C140.551102,317.938080 141.569656,318.702454 141.905609,319.697327 
	C142.469055,321.365967 142.597672,323.181427 142.970856,325.314026 
z"/>
<path fill="#E7E7E7" opacity="1.000000" stroke="none" 
	d="
M381.353821,276.699219 
	C380.775940,273.930969 380.482025,270.881470 380.278595,267.396606 
	C380.791992,270.113464 381.214905,273.265717 381.353821,276.699219 
z"/>
<path fill="#E7E7E7" opacity="1.000000" stroke="none" 
	d="
M294.588898,314.047607 
	C295.030579,316.046906 295.106842,318.099731 295.067566,320.579285 
	C291.080200,318.843597 290.914795,317.275726 294.588898,314.047607 
z"/>
<path fill="#E7E7E7" opacity="1.000000" stroke="none" 
	d="
M151.668976,317.060425 
	C151.608856,319.913391 151.152817,322.799255 150.327698,325.656647 
	C150.396759,322.783203 150.834915,319.938263 151.668976,317.060425 
z"/>
<path fill="#454545" opacity="1.000000" stroke="none" 
	d="
M387.324158,257.320007 
	C387.831909,256.904205 388.203522,256.921295 388.851776,256.996460 
	C389.175232,259.416718 389.222076,261.778839 388.878479,264.564880 
	C388.111481,264.981628 387.734863,264.974457 387.358276,264.967285 
	C387.301544,262.562500 387.244812,260.157684 387.324158,257.320007 
z"/>
<path fill="#454545" opacity="1.000000" stroke="none" 
	d="
M64.727837,180.314316 
	C65.174049,182.442368 65.467934,184.907822 65.507362,187.658630 
	C65.027115,185.513229 64.801315,183.082474 64.727837,180.314316 
z"/>
<path fill="#E7E7E7" opacity="1.000000" stroke="none" 
	d="
M338.957275,103.283905 
	C335.946136,102.762970 332.851868,101.901741 329.474609,100.803230 
	C332.419098,101.358498 335.646606,102.151047 338.957275,103.283905 
z"/>
<path fill="#454545" opacity="1.000000" stroke="none" 
	d="
M66.728867,229.313553 
	C67.177010,231.440613 67.467377,233.903076 67.508682,236.654083 
	C67.030106,234.511383 66.800598,232.080185 66.728867,229.313553 
z"/>
<path fill="#535353" opacity="1.000000" stroke="none" 
	d="
M387.248169,265.397461 
	C387.734863,264.974457 388.111481,264.981628 388.770569,264.997711 
	C388.974487,267.302826 388.895905,269.599030 388.545959,272.391846 
	C387.866547,272.897247 387.458527,272.906097 387.050507,272.914917 
	C387.079681,270.552521 387.108887,268.190125 387.248169,265.397461 
z"/>
<path fill="#B2B2B2" opacity="1.000000" stroke="none" 
	d="
M146.903809,183.242493 
	C147.284714,185.111755 147.394058,187.245758 147.340485,189.698425 
	C146.995819,187.847153 146.814041,185.677170 146.903809,183.242493 
z"/>
<path fill="#E7E7E7" opacity="1.000000" stroke="none" 
	d="
M134.863373,349.842102 
	C134.990585,348.439087 135.555206,347.107269 136.119827,345.775421 
	C136.797394,346.911316 137.474960,348.047180 138.055359,349.594147 
	C137.072388,349.974579 136.186600,349.943909 134.863373,349.842102 
z"/>
<path fill="#E7E7E7" opacity="1.000000" stroke="none" 
	d="
M378.293030,196.744217 
	C377.810089,194.900696 377.597717,192.807709 377.524902,190.327637 
	C377.964172,192.125275 378.263885,194.310013 378.293030,196.744217 
z"/>
<path fill="#E7E7E7" opacity="1.000000" stroke="none" 
	d="
M287.981842,316.325073 
	C285.982513,316.407593 283.868652,316.129242 281.783142,315.442932 
	C283.830109,315.344727 285.848694,315.654480 287.981842,316.325073 
z"/>
<path fill="#E7E7E7" opacity="1.000000" stroke="none" 
	d="
M282.218994,338.969482 
	C283.629822,338.423859 285.451691,337.884552 287.691223,337.350067 
	C286.282593,337.895172 284.456299,338.435455 282.218994,338.969482 
z"/>
<path fill="#E7E7E7" opacity="1.000000" stroke="none" 
	d="
M413.444702,314.977783 
	C412.128296,315.536713 410.431885,316.094513 408.340210,316.563110 
	C409.651550,315.974823 411.358124,315.475708 413.444702,314.977783 
z"/>
<path fill="#E7E7E7" opacity="1.000000" stroke="none" 
	d="
M392.008636,206.902008 
	C391.644653,205.248886 391.579773,203.438599 391.719788,201.304031 
	C392.052368,202.901459 392.180054,204.823135 392.008636,206.902008 
z"/>
<path fill="#E7E7E7" opacity="1.000000" stroke="none" 
	d="
M156.613297,356.583008 
	C156.994019,358.240967 157.120651,360.303711 157.084930,362.673462 
	C156.734772,360.982941 156.546982,358.985321 156.613297,356.583008 
z"/>
<path fill="#E7E7E7" opacity="1.000000" stroke="none" 
	d="
M282.177399,366.957764 
	C283.611572,366.453674 285.455566,365.955780 287.714539,365.461487 
	C286.282074,365.964752 284.434662,366.464386 282.177399,366.957764 
z"/>
<path fill="#E7E7E7" opacity="1.000000" stroke="none" 
	d="
M393.053955,179.902756 
	C392.705505,178.582520 392.639832,177.105209 392.753113,175.304932 
	C393.066925,176.569870 393.201813,178.157791 393.053955,179.902756 
z"/>
<path fill="#E7E7E7" opacity="1.000000" stroke="none" 
	d="
M310.949615,97.230560 
	C309.578156,97.463890 308.110931,97.377296 306.334198,97.096245 
	C307.634430,96.904732 309.244110,96.907684 310.949615,97.230560 
z"/>
<path fill="#E7E7E7" opacity="1.000000" stroke="none" 
	d="
M165.975861,135.089615 
	C166.266418,136.404236 166.270782,137.865906 166.125793,139.660889 
	C165.880844,138.408356 165.785278,136.822495 165.975861,135.089615 
z"/>
<path fill="#454545" opacity="1.000000" stroke="none" 
	d="
M64.141449,137.682495 
	C64.353668,139.152802 64.364388,140.931076 64.076401,142.930969 
	C63.831787,141.431900 63.885872,139.711182 64.141449,137.682495 
z"/>
<path fill="#535353" opacity="1.000000" stroke="none" 
	d="
M72.005890,176.705109 
	C71.696236,175.475433 71.560562,173.974228 71.675125,172.243347 
	C72.010193,173.486984 72.095024,174.960297 72.005890,176.705109 
z"/>
<path fill="#454545" opacity="1.000000" stroke="none" 
	d="
M65.796555,209.274017 
	C66.212234,210.480164 66.471024,211.969193 66.485748,213.702408 
	C66.041016,212.483353 65.840340,211.020126 65.796555,209.274017 
z"/>
<path fill="#E7E7E7" opacity="1.000000" stroke="none" 
	d="
M391.027466,229.913315 
	C390.707367,228.582809 390.674774,227.106430 390.841888,225.320374 
	C391.132721,226.596298 391.223846,228.181854 391.027466,229.913315 
z"/>
<path fill="#454545" opacity="1.000000" stroke="none" 
	d="
M309.402283,90.020142 
	C308.678131,89.534401 308.355347,89.069237 308.054077,88.318901 
	C309.615723,88.083374 311.155853,88.133018 312.855530,88.532745 
	C313.016296,89.066803 313.017548,89.250778 313.011841,89.710648 
	C311.937775,90.004593 310.870697,90.022652 309.402283,90.020142 
z"/>
<path fill="#B2B2B2" opacity="1.000000" stroke="none" 
	d="
M201.001938,187.363983 
	C202.462509,187.609253 203.945923,188.184158 205.708481,188.951996 
	C204.333344,188.661163 202.679047,188.177383 201.001938,187.363983 
z"/>
<path fill="#454545" opacity="1.000000" stroke="none" 
	d="
M67.429382,125.775314 
	C67.248642,127.338722 66.787193,129.093521 66.030350,131.000824 
	C66.206192,129.424454 66.677437,127.695580 67.429382,125.775314 
z"/>
<path fill="#E7E7E7" opacity="1.000000" stroke="none" 
	d="
M154.024933,348.072144 
	C153.991577,347.320892 154.281952,346.572723 154.572327,345.824585 
	C155.437607,346.296753 156.302872,346.768921 157.052658,347.624542 
	C156.074341,348.030396 155.211502,348.052826 154.024933,348.072144 
z"/>
<path fill="#E7E7E7" opacity="1.000000" stroke="none" 
	d="
M386.904968,273.218689 
	C387.458527,272.906097 387.866547,272.897247 388.576294,272.820312 
	C388.388824,273.760468 387.899628,274.768707 387.410400,275.776947 
	C387.193420,275.025452 386.976410,274.273987 386.904968,273.218689 
z"/>
<path fill="#E7E7E7" opacity="1.000000" stroke="none" 
	d="
M330.956604,352.892639 
	C331.848969,352.436768 333.148315,352.020447 334.733429,351.765289 
	C333.800659,352.261688 332.582153,352.596954 330.956604,352.892639 
z"/>
<path fill="#E7E7E7" opacity="1.000000" stroke="none" 
	d="
M386.709900,318.044800 
	C387.413147,317.563843 388.459412,317.086853 389.767456,316.749207 
	C389.037109,317.275299 388.044983,317.662018 386.709900,318.044800 
z"/>
<path fill="#E7E7E7" opacity="1.000000" stroke="none" 
	d="
M312.188110,352.202820 
	C313.304108,352.082977 314.630280,352.241974 315.892914,352.711914 
	C314.685669,352.842438 313.541992,352.662048 312.188110,352.202820 
z"/>
<path fill="#E7E7E7" opacity="1.000000" stroke="none" 
	d="
M322.963318,99.065231 
	C322.219055,99.327423 321.380646,99.318199 320.279388,99.121277 
	C320.967438,98.886986 321.918304,98.840393 322.963318,99.065231 
z"/>
<path fill="#E7E7E7" opacity="1.000000" stroke="none" 
	d="
M377.263977,165.827744 
	C376.846649,165.169693 376.661591,164.348236 376.604492,163.232773 
	C376.987061,163.847290 377.241638,164.755814 377.263977,165.827744 
z"/>
<path fill="#535353" opacity="1.000000" stroke="none" 
	d="
M71.005295,210.770370 
	C70.708633,210.103897 70.582138,209.230804 70.691986,208.185303 
	C71.010712,208.863159 71.093079,209.713470 71.005295,210.770370 
z"/>
<path fill="#E7E7E7" opacity="1.000000" stroke="none" 
	d="
M377.609039,176.973907 
	C377.211456,176.263535 377.119232,175.495667 377.133057,174.350830 
	C377.464172,174.954681 377.689301,175.935547 377.609039,176.973907 
z"/>
<path fill="#B2B2B2" opacity="1.000000" stroke="none" 
	d="
M249.179474,189.388824 
	C249.860245,188.964569 250.700912,188.775711 251.869675,188.641800 
	C251.244965,189.005905 250.292160,189.315063 249.179474,189.388824 
z"/>
<path fill="#E7E7E7" opacity="1.000000" stroke="none" 
	d="
M342.088654,97.365822 
	C343.113525,97.270576 344.221375,97.579529 345.574982,98.137283 
	C344.604370,98.180740 343.388000,97.975372 342.088654,97.365822 
z"/>
<path fill="#E7E7E7" opacity="1.000000" stroke="none" 
	d="
M357.111023,105.211678 
	C357.987610,105.375450 358.873108,105.895714 359.868469,106.712677 
	C359.025482,106.528984 358.072723,106.048569 357.111023,105.211678 
z"/>
<path fill="#E7E7E7" opacity="1.000000" stroke="none" 
	d="
M354.073944,103.136650 
	C354.991730,103.271034 355.932312,103.778938 357.007141,104.585052 
	C356.126526,104.425568 355.111633,103.967865 354.073944,103.136650 
z"/>
<path fill="#E7E7E7" opacity="1.000000" stroke="none" 
	d="
M374.951904,294.497070 
	C375.677216,294.847595 376.405426,295.558716 377.200256,296.574615 
	C376.496216,296.205505 375.725494,295.531586 374.951904,294.497070 
z"/>
<path fill="#E7E7E7" opacity="1.000000" stroke="none" 
	d="
M86.586655,359.032318 
	C86.941483,359.438812 87.014366,359.892883 86.986389,360.680115 
	C86.398811,360.692627 85.912094,360.371948 85.425377,360.051270 
	C85.718483,359.727478 86.011597,359.403687 86.586655,359.032318 
z"/>
<path fill="#B2B2B2" opacity="1.000000" stroke="none" 
	d="
M312.466919,203.241913 
	C312.003845,202.779495 311.716339,202.049194 311.593689,201.059509 
	C312.053223,201.524765 312.347870,202.249390 312.466919,203.241913 
z"/>
<path fill="#E7E7E7" opacity="1.000000" stroke="none" 
	d="
M379.516663,232.987579 
	C379.148102,232.568146 379.055878,232.111053 379.077576,231.316467 
	C379.391937,231.635956 379.592438,232.292938 379.516663,232.987579 
z"/>
<path fill="#E7E7E7" opacity="1.000000" stroke="none" 
	d="
M156.656128,351.307312 
	C157.022552,351.809723 157.113495,352.600128 157.047150,353.586823 
	C156.720123,353.053864 156.550385,352.324554 156.656128,351.307312 
z"/>
<path fill="#E7E7E7" opacity="1.000000" stroke="none" 
	d="
M281.518433,372.037842 
	C281.289276,371.515594 281.352875,370.953461 281.581726,370.161011 
	C281.768402,370.619751 281.789795,371.308868 281.518433,372.037842 
z"/>
<path fill="#454545" opacity="1.000000" stroke="none" 
	d="
M336.740875,90.010361 
	C336.323120,90.241035 335.680389,90.290237 334.943024,90.125366 
	C335.404205,89.883827 335.960083,89.856354 336.740875,90.010361 
z"/>
<path fill="#535353" opacity="1.000000" stroke="none" 
	d="
M70.004883,242.830475 
	C69.711380,242.404846 69.588760,241.832474 69.691406,241.137207 
	C70.003044,241.570786 70.089409,242.127258 70.004883,242.830475 
z"/>
<path fill="#454545" opacity="1.000000" stroke="none" 
	d="
M322.822693,88.957214 
	C322.413422,89.232246 321.846375,89.355652 321.144287,89.260635 
	C321.561157,88.963341 322.113037,88.884460 322.822693,88.957214 
z"/>
<path fill="#E7E7E7" opacity="1.000000" stroke="none" 
	d="
M134.699707,313.040680 
	C134.339340,312.569458 134.271545,312.023438 134.310730,311.217468 
	C134.609222,311.626953 134.800751,312.296417 134.699707,313.040680 
z"/>
<path fill="#454545" opacity="1.000000" stroke="none" 
	d="
M344.754364,90.940811 
	C344.323181,91.197716 343.670746,91.260643 342.932007,91.099747 
	C343.408173,90.832886 343.970642,90.789856 344.754364,90.940811 
z"/>
<path fill="#E7E7E7" opacity="1.000000" stroke="none" 
	d="
M375.263947,145.843323 
	C374.820129,145.488174 374.591461,144.989822 374.421570,144.221466 
	C374.813293,144.534363 375.146210,145.117249 375.263947,145.843323 
z"/>
<path fill="#E7E7E7" opacity="1.000000" stroke="none" 
	d="
M393.544403,136.981369 
	C393.076141,136.591156 392.895264,136.156921 392.803955,135.369537 
	C393.206299,135.656708 393.519012,136.297028 393.544403,136.981369 
z"/>
<path fill="#E7E7E7" opacity="1.000000" stroke="none" 
	d="
M319.008423,91.873795 
	C319.502045,91.599495 320.060822,91.574745 320.811768,91.767593 
	C320.360474,92.031235 319.717010,92.077293 319.008423,91.873795 
z"/>
<path fill="#E7E7E7" opacity="1.000000" stroke="none" 
	d="
M225.024261,326.476257 
	C225.435867,326.142120 225.893860,326.083160 226.687943,326.121887 
	C226.372910,326.396851 225.721771,326.574188 225.024261,326.476257 
z"/>
<path fill="#E7E7E7" opacity="1.000000" stroke="none" 
	d="
M301.974121,95.961922 
	C301.521271,96.201210 300.986755,96.215195 300.242188,96.049004 
	C300.652191,95.824753 301.272339,95.780685 301.974121,95.961922 
z"/>
<path fill="#E7E7E7" opacity="1.000000" stroke="none" 
	d="
M314.976868,97.971962 
	C314.508179,98.244644 313.959839,98.287849 313.216980,98.119919 
	C313.647400,97.853355 314.272308,97.797920 314.976868,97.971962 
z"/>
<path fill="#E7E7E7" opacity="1.000000" stroke="none" 
	d="
M398.117249,317.133545 
	C398.487305,316.691071 399.005646,316.488098 399.803436,316.257690 
	C399.477112,316.611176 398.871338,316.992096 398.117249,317.133545 
z"/>
<path fill="#E7E7E7" opacity="1.000000" stroke="none" 
	d="
M134.706360,314.803009 
	C134.407608,314.739197 134.342529,314.516815 134.376434,314.406067 
	C134.911667,314.399872 135.413010,314.504395 135.914352,314.608887 
	C135.611267,314.694855 135.308182,314.780823 134.706360,314.803009 
z"/>
<path fill="#E7E7E7" opacity="1.000000" stroke="none" 
	d="
M162.471344,157.451721 
	C162.525925,157.420486 162.416763,157.482971 162.471344,157.451721 
z"/>
<path fill="#E7E7E7" opacity="1.000000" stroke="none" 
	d="
M391.545227,123.474800 
	C391.574249,123.526138 391.516174,123.423462 391.545227,123.474800 
z"/>
<path fill="#E7E7E7" opacity="1.000000" stroke="none" 
	d="
M362.576843,119.324539 
	C362.686920,119.087219 362.867676,118.878059 363.048431,118.668900 
	C363.048401,118.853775 363.048370,119.038658 362.876160,119.358803 
	C362.703979,119.494064 362.647522,119.352707 362.576843,119.324539 
z"/>
<path fill="#F0F0F0" opacity="1.000000" stroke="none" 
	d="
M257.500793,143.463531 
	C252.796188,142.528427 247.418289,142.960190 247.113144,136.610840 
	C246.814377,130.394379 252.243362,130.100006 256.302338,128.598175 
	C259.107727,127.560173 261.945038,126.338646 264.865417,125.969688 
	C267.059296,125.692520 270.378540,125.879456 271.441589,127.235626 
	C272.765533,128.924652 273.356720,132.589050 272.397095,134.423859 
	C268.307495,142.243164 268.447327,143.850830 257.500793,143.463531 
z"/>
<path fill="#F0F0F0" opacity="1.000000" stroke="none" 
	d="
M208.303726,134.656708 
	C208.003571,136.706879 208.025360,138.725769 207.077332,140.050797 
	C203.700256,144.770920 189.601044,144.238861 186.361771,139.438629 
	C185.897797,138.751068 185.536621,137.995071 185.101196,137.287155 
	C183.133621,134.088150 181.198441,130.863388 184.208420,127.255104 
	C187.162415,123.713921 190.558899,125.617760 193.810181,126.649529 
	C196.977280,127.654579 200.227936,128.548920 203.183380,130.013565 
	C205.090164,130.958527 206.531113,132.843491 208.303726,134.656708 
z"/>
<path fill="#F8F8F8" opacity="1.000000" stroke="none" 
	d="
M354.366455,146.729492 
	C354.632660,151.886658 352.420532,153.472412 347.904755,152.637466 
	C342.524811,151.642700 337.114319,150.789291 331.693115,150.050293 
	C328.475891,149.611755 327.146515,147.834274 326.880005,144.761765 
	C326.377625,138.969788 325.690643,133.193924 325.175934,127.402893 
	C324.738495,122.481194 325.917999,121.139427 330.675140,121.906189 
	C337.218170,122.960808 343.676300,124.532196 350.203644,125.698311 
	C353.525696,126.291801 354.518890,128.231171 354.453491,131.305603 
	C354.347504,136.289139 354.386810,141.275787 354.366455,146.729492 
z"/>
<path fill="#F0F0F0" opacity="1.000000" stroke="none" 
	d="
M345.458862,214.641678 
	C342.796936,202.267029 340.247223,190.299713 337.531891,177.555008 
	C342.536835,178.252274 346.849854,178.478607 350.895355,179.638336 
	C352.156799,179.999954 353.384369,182.857941 353.452789,184.618790 
	C353.911743,196.427673 354.073822,208.248520 354.287262,220.066299 
	C354.358612,224.017075 354.298492,227.970230 354.298492,232.502228 
	C347.151947,228.235123 346.868011,221.392960 345.458862,214.641678 
z"/>
<path fill="#E3E3E3" opacity="1.000000" stroke="none" 
	d="
M86.580597,328.158234 
	C87.087196,329.243713 87.029305,330.608856 87.440536,330.768921 
	C94.010880,333.326599 89.807343,338.132690 90.725189,342.097351 
	C87.949631,340.809540 85.936470,339.187256 83.862549,339.105438 
	C81.760719,339.022491 79.598839,340.462128 76.459717,341.598022 
	C76.459717,338.956024 75.260132,334.903198 76.766380,332.701691 
	C78.608131,330.009766 81.450729,326.184357 86.580597,328.158234 
z"/>
<path fill="#D7D7D7" opacity="1.000000" stroke="none" 
	d="
M72.424355,321.497162 
	C74.566261,320.832611 76.548378,320.539581 78.820450,320.203705 
	C78.820450,322.607880 78.820450,324.207367 78.820450,326.086609 
	C76.817757,326.086609 74.915634,326.086609 72.492790,326.086609 
	C72.415016,324.649261 72.339790,323.258972 72.424355,321.497162 
z"/>
<path fill="#D7D7D7" opacity="1.000000" stroke="none" 
	d="
M93.421616,326.284790 
	C91.558678,326.350830 90.084145,326.350830 88.379272,326.350830 
	C88.379272,324.328369 88.379272,322.730316 88.379272,320.738525 
	C90.330338,320.738525 92.223434,320.738525 95.050072,320.738525 
	C94.594383,322.752380 94.202202,324.485535 93.421616,326.284790 
z"/>
<path fill="#F8F8F8" opacity="1.000000" stroke="none" 
	d="
M272.015442,344.631165 
	C273.157135,345.411896 274.329224,346.166229 274.349609,346.950531 
	C274.504669,352.910858 274.434479,358.877045 274.434479,365.191620 
	C267.463959,365.191620 260.894348,365.191620 253.929108,365.191620 
	C253.929108,358.607574 253.929108,352.023956 253.929108,344.618683 
	C259.670990,344.618683 265.591705,344.618683 272.015442,344.631165 
z"/>
<path fill="#FBFBFB" opacity="1.000000" stroke="none" 
	d="
M269.986053,316.666962 
	C273.418182,316.239044 274.656647,317.266266 274.516663,320.452759 
	C274.278290,325.878784 274.451019,331.322876 274.451019,337.054810 
	C267.452515,337.054810 260.893280,337.054810 253.938950,337.054810 
	C253.938950,330.528198 253.938950,323.986694 253.938950,316.666901 
	C259.003113,316.666901 264.244995,316.666901 269.986053,316.666962 
z"/>
<path fill="#E3E3E3" opacity="1.000000" stroke="none" 
	d="
M188.154266,185.233093 
	C187.030914,199.455627 174.675751,206.708710 163.583740,200.025620 
	C158.100327,196.721802 155.607910,191.473892 156.022903,185.300369 
	C156.471298,178.630066 160.332718,173.530029 166.407959,171.162308 
	C175.923065,167.453949 185.142227,173.563507 188.154266,185.233093 
M177.026474,176.728912 
	C176.465424,172.651657 173.272491,172.618698 170.628632,173.378723 
	C169.139343,173.806870 167.297623,176.125900 167.213287,177.679901 
	C167.034103,180.981232 165.384537,181.520691 162.765961,181.547775 
	C159.471573,181.581818 158.599640,183.719406 158.596558,186.543671 
	C158.593430,189.397949 159.618668,191.655426 162.797211,191.541504 
	C166.069916,191.424194 167.194077,192.611191 167.095886,195.858109 
	C167.001160,198.989899 169.080399,199.985855 172.065933,199.983688 
	C175.081253,199.981506 177.044312,198.907471 176.982788,195.790695 
	C176.926178,192.923401 177.663406,191.431534 180.847824,191.549866 
	C184.202194,191.674515 185.516830,189.618301 185.517654,186.443939 
	C185.518494,183.195297 184.041443,181.359528 180.721985,181.497589 
	C177.804962,181.618927 176.839874,180.200989 177.026474,176.728912 
z"/>
<path fill="#F8F8F8" opacity="1.000000" stroke="none" 
	d="
M271.588928,196.297394 
	C266.782684,188.339859 267.243866,181.044678 272.648834,175.432648 
	C277.831451,170.051483 285.524994,168.806595 291.799591,172.397964 
	C297.710724,175.781296 300.603790,181.007874 300.063904,187.715210 
	C299.524536,194.416580 295.934967,199.352020 289.433533,201.408737 
	C282.702423,203.538116 276.621124,202.120163 271.588928,196.297394 
z"/>
<path fill="#0C0C0C" opacity="1.000000" stroke="none" 
	d="
M177.050522,177.137238 
	C176.839874,180.200989 177.804962,181.618927 180.721985,181.497589 
	C184.041443,181.359528 185.518494,183.195297 185.517654,186.443939 
	C185.516830,189.618301 184.202194,191.674515 180.847824,191.549866 
	C177.663406,191.431534 176.926178,192.923401 176.982788,195.790695 
	C177.044312,198.907471 175.081253,199.981506 172.065933,199.983688 
	C169.080399,199.985855 167.001160,198.989899 167.095886,195.858109 
	C167.194077,192.611191 166.069916,191.424194 162.797211,191.541504 
	C159.618668,191.655426 158.593430,189.397949 158.596558,186.543671 
	C158.599640,183.719406 159.471573,181.581818 162.765961,181.547775 
	C165.384537,181.520691 167.034103,180.981232 167.213287,177.679901 
	C167.297623,176.125900 169.139343,173.806870 170.628632,173.378723 
	C173.272491,172.618698 176.465424,172.651657 177.050522,177.137238 
z"/>
</svg>