<svg version="1.1" id="Layer_1" xmlns="http://www.w3.org/2000/svg" xmlns:xlink="http://www.w3.org/1999/xlink" x="0px" y="0px"
	 width="100%" viewBox="0 0 704 688" enable-background="new 0 0 704 688" xml:space="preserve">
<path fill="#000000" opacity="1.000000" stroke="none" 
	d="
M289.878113,515.265137 
	C280.464417,516.474365 271.482666,516.781372 262.595093,514.850586 
	C237.632034,509.427490 223.876144,492.802124 217.753967,469.034515 
	C212.712204,449.461273 217.747406,432.873962 233.637939,419.935303 
	C235.339371,418.549957 236.899689,417.067932 237.204178,414.224640 
	C229.923309,409.663055 223.141953,404.213257 222.094910,394.671722 
	C221.057648,385.219208 226.020691,378.574890 233.696793,373.058929 
	C229.557999,369.906555 225.878036,367.130188 222.229568,364.313049 
	C220.521591,362.994263 219.084534,364.187347 217.566162,364.703552 
	C211.267700,366.844727 205.062836,369.304718 198.144318,367.493347 
	C187.221954,364.633820 183.270630,352.500244 190.564957,343.882568 
	C193.621521,340.271484 197.547348,337.745514 201.428543,335.140717 
	C206.968719,331.422516 207.400833,322.726288 202.266190,318.641846 
	C198.316315,315.499847 194.793793,311.997559 192.293945,307.575562 
	C188.742706,301.293762 189.145081,295.043427 193.376343,289.850433 
	C197.381256,284.935242 202.556458,283.622406 209.629013,285.733215 
	C213.163757,286.788177 216.529785,288.277618 219.577271,290.321716 
	C222.218063,292.093018 224.498322,291.953522 226.787445,289.878998 
	C227.032608,289.656799 227.302200,289.422516 227.603790,289.307312 
	C237.132080,285.667908 240.637482,277.763245 244.380432,268.827271 
	C258.909576,234.140015 286.200104,214.684814 322.329742,206.730392 
	C326.061188,205.908844 329.840881,205.016724 333.631561,204.828262 
	C338.277893,204.597260 339.295715,202.464722 338.437653,198.337967 
	C336.295898,188.037567 335.164856,177.613831 335.716980,167.091125 
	C336.586975,150.511902 340.574463,134.950851 350.546051,121.224945 
	C362.974457,104.117226 380.215210,99.578522 399.974854,102.270447 
	C411.944031,103.901054 422.715118,108.847008 431.206543,117.731483 
	C446.396729,133.624832 447.384399,157.177399 433.757965,175.935684 
	C425.600769,187.165009 414.758026,195.461792 403.461945,203.235046 
	C400.369171,205.363266 397.307495,207.536713 393.267822,210.363876 
	C399.114288,210.955490 403.573303,209.579987 408.074554,209.135651 
	C417.161316,208.238693 426.079559,208.865555 434.674377,211.922516 
	C449.638306,217.244827 457.120667,232.412766 453.930237,250.356796 
	C452.734619,257.081543 451.344513,263.772400 448.732849,270.094055 
	C447.342987,273.458221 447.651184,275.475830 451.203583,277.197510 
	C459.285156,281.114288 465.428925,288.161072 473.945465,291.497467 
	C475.965210,292.288696 477.124695,294.371429 478.074402,296.364777 
	C486.101501,313.212769 483.728638,327.109314 470.301453,340.412323 
	C468.056549,342.636475 467.543701,344.125763 469.294434,347.106720 
	C473.211212,353.775665 470.187469,362.574036 463.192200,366.290039 
	C461.903320,366.974701 460.509003,367.460968 458.507111,368.320679 
	C464.510559,373.580353 468.947235,379.302673 470.662628,386.933624 
	C472.400085,394.662598 469.771606,401.652679 467.645966,409.255157 
	C471.759705,408.344360 475.388123,407.088745 479.091888,406.800293 
	C494.085419,405.632599 503.204865,414.498291 510.510162,425.987885 
	C512.827454,429.632477 515.138123,433.054688 518.289795,436.178314 
	C528.080383,445.881592 527.846313,464.083954 515.763428,472.576172 
	C497.825562,485.183350 479.950928,497.558350 458.129913,502.540161 
	C455.051392,503.242981 451.984344,504.192627 448.862274,504.471619 
	C439.046417,505.348755 430.807892,510.155579 422.705505,515.017090 
	C410.367615,522.419922 397.575653,522.794983 384.196106,518.905457 
	C374.768433,516.164734 365.577423,512.636414 355.950836,510.555298 
	C338.293549,506.738068 320.884186,508.729218 303.529846,512.595642 
	C299.149261,513.571533 294.726654,514.358765 289.878113,515.265137 
M482.678528,443.230469 
	C471.265167,441.468658 460.313568,438.302856 449.848114,433.287994 
	C441.510193,429.292603 436.314209,423.374054 435.432312,413.915924 
	C435.141174,410.793732 434.268616,407.710632 433.497070,404.651245 
	C431.352539,396.147522 429.207275,387.634521 425.037445,379.886749 
	C420.280243,380.489838 419.085327,382.577209 420.443024,386.797424 
	C421.909180,391.354980 420.055359,395.043762 416.408661,396.079803 
	C412.679993,397.139160 409.366699,394.963104 407.993408,390.303864 
	C407.329376,388.051086 406.795441,385.736115 405.329102,383.893585 
	C402.364471,380.168335 399.045959,376.724060 393.658325,377.874725 
	C388.991089,378.871521 385.705444,383.414948 385.272186,389.085175 
	C385.095276,391.400787 385.292236,393.742767 385.254639,396.071716 
	C385.208008,398.961853 384.059143,401.197754 381.330475,402.484070 
	C378.492920,403.821808 375.968750,403.068787 374.116241,400.881714 
	C372.324585,398.766449 370.486359,398.555573 367.947144,399.086670 
	C364.709412,399.763794 361.363129,400.193390 358.060303,400.214447 
	C354.458221,400.237457 352.096222,398.246338 351.740784,394.478516 
	C351.385254,390.709747 353.270325,388.463013 356.892395,387.722534 
	C359.332977,387.223572 361.805115,386.824310 364.282623,386.572205 
	C369.470459,386.044403 372.684784,383.933777 374.845062,378.561768 
	C380.202301,365.240295 394.880188,360.805023 407.246429,367.959381 
	C408.965149,368.953766 410.484924,370.826538 414.234436,369.695679 
	C398.410339,358.842163 394.074951,343.224396 393.354889,326.106659 
	C383.342865,327.280884 379.950836,329.709290 376.281677,337.989685 
	C374.013519,343.108398 370.965485,347.611053 366.039520,350.566559 
	C360.274963,354.025238 354.219482,353.127411 349.927216,347.989868 
	C348.339508,346.089508 346.778992,344.009613 345.855804,341.746521 
	C344.342926,338.037964 341.921051,337.071869 338.066925,337.219116 
	C317.343231,338.010834 297.340729,334.282135 277.932281,327.093750 
	C276.328217,326.499695 274.748413,325.143463 272.279541,326.507599 
	C274.613922,342.869965 268.661713,357.883636 262.576080,372.966827 
	C273.735199,378.057190 284.612976,381.548676 295.823151,384.130188 
	C300.909882,385.301605 303.177338,388.613281 302.100769,392.589447 
	C301.098053,396.292633 297.620117,397.931458 292.781342,396.816040 
	C283.035950,394.569489 273.533020,391.527069 264.186523,387.974670 
	C262.217529,387.226318 260.384338,385.865997 257.879333,386.286652 
	C255.965744,391.960358 255.232910,397.892700 254.288422,403.769836 
	C252.713058,413.572479 250.975830,423.450562 242.547348,429.972931 
	C230.760727,439.093964 227.076553,450.866608 230.458084,464.921875 
	C234.409485,481.345825 242.954636,494.378082 259.678864,500.215851 
	C272.564056,504.713623 285.645386,502.977386 298.582245,500.147797 
	C311.775604,497.262085 325.017914,494.990570 338.585724,495.264282 
	C353.408752,495.563324 367.589905,499.129883 381.374756,504.204651 
	C395.358856,509.352722 408.513519,509.274902 421.400513,500.811646 
	C427.033661,497.112213 432.986115,493.513184 440.035248,492.721252 
	C466.536377,489.744049 488.413940,476.768066 508.850281,460.744568 
	C512.779541,457.663788 512.282898,453.371155 511.123322,449.278290 
	C510.006622,445.336792 506.995941,444.064606 502.987915,444.272888 
	C496.495728,444.610168 490.013489,444.193237 482.678528,443.230469 
M426.974854,268.483917 
	C420.332611,257.988617 412.300964,248.659973 402.750488,240.752701 
	C384.921570,225.991241 364.925385,216.488892 341.198486,217.422562 
	C329.327087,217.889694 317.853638,220.839890 306.830872,225.290344 
	C280.778259,235.809113 263.039185,254.283859 253.863327,280.911316 
	C252.850449,283.850616 253.081619,286.267059 255.336380,288.673096 
	C258.761230,292.327789 261.802155,296.420990 263.702545,301.030945 
	C265.920197,306.410583 269.918854,309.311768 274.960236,311.542816 
	C314.040771,328.837708 353.056549,328.077698 392.095428,311.413574 
	C395.236420,310.072815 397.020905,307.901947 398.402496,304.829376 
	C404.198303,291.939972 413.333099,282.548340 427.146576,278.229767 
	C428.465088,277.817566 430.255341,277.957275 430.914978,276.029907 
	C430.580170,273.360138 428.527161,271.444855 426.974854,268.483917 
M351.119263,195.450455 
	C352.014526,198.218994 351.280304,202.388901 354.305908,203.406174 
	C361.116882,205.696121 367.993042,208.698364 375.549469,205.202087 
	C386.847443,199.974625 396.245880,191.967133 406.243256,184.849991 
	C413.600342,179.612488 419.594849,173.004440 424.968811,165.652161 
	C432.839417,154.884140 429.863495,130.161133 417.816589,123.387115 
	C409.516357,118.719879 401.146179,114.400375 391.302338,114.363892 
	C373.733612,114.298775 362.302856,123.304802 355.306061,138.810303 
	C347.148682,156.887711 347.992950,175.685394 351.119263,195.450455 
M214.621765,302.986572 
	C213.007385,302.283722 211.675751,300.718414 209.594696,301.303070 
	C207.818024,303.809723 208.216263,305.972565 210.544800,307.833191 
	C212.495850,309.392151 214.348740,311.127747 216.474503,312.402588 
	C220.350922,314.727295 221.741684,317.501648 219.810883,321.958710 
	C218.210510,325.653076 217.652847,329.745758 218.618103,333.723419 
	C219.711700,338.230133 218.073242,341.018372 214.160751,343.110046 
	C211.029602,344.784027 207.592087,346.200470 205.632431,349.420441 
	C208.722931,354.771545 212.738754,352.118866 215.693344,350.371490 
	C221.274765,347.070557 225.659073,347.688568 229.781723,352.478241 
	C230.750458,353.603729 231.965714,354.537109 233.148239,355.454926 
	C238.375977,359.512329 243.782883,363.262421 250.219345,365.600952 
	C260.814423,346.226898 263.451691,327.115387 252.166428,307.711853 
	C244.192581,294.001831 243.431625,293.436523 230.507523,304.179199 
	C224.673309,309.028656 224.502426,309.389648 218.194107,305.218506 
	C217.221481,304.575378 216.225998,303.966797 214.621765,302.986572 
M464.981720,303.553375 
	C463.716217,301.087982 461.543243,301.355377 459.358276,301.701843 
	C455.754486,302.273193 452.124786,302.726715 448.559143,303.481110 
	C444.414703,304.357941 441.763580,302.885712 440.437744,298.936707 
	C439.909821,297.364227 439.391754,295.775513 439.050385,294.156006 
	C438.302917,290.610168 436.066620,289.635406 432.787323,290.328461 
	C426.169647,291.727051 420.888672,295.290863 416.645569,300.454681 
	C405.376495,314.169281 406.140411,329.637299 410.954346,345.231689 
	C412.576538,350.486786 416.097473,355.905762 422.030304,357.258331 
	C425.661072,358.086090 427.611023,353.640137 429.885040,351.183838 
	C432.844940,347.986603 435.761810,347.280670 439.576202,349.485596 
	C442.889954,351.401062 446.440460,352.872803 450.212463,353.670380 
	C452.004211,354.049225 454.165741,354.541687 455.077393,352.458832 
	C455.927246,350.517029 454.009735,349.511902 452.666351,348.628418 
	C449.612488,346.619873 446.546753,344.607513 443.348511,342.845978 
	C439.517395,340.735840 438.249329,337.784576 439.761505,333.703186 
	C441.573456,328.812836 442.420166,323.640900 442.461273,318.561829 
	C442.504639,313.208130 444.759979,311.419373 449.660370,310.516907 
	C455.083191,309.518219 460.963593,308.992981 464.981720,303.553375 
M409.994965,222.239380 
	C407.965668,222.498535 405.641174,221.819809 403.785797,224.495712 
	C417.183228,234.001068 427.831787,246.172684 438.126678,260.181915 
	C440.302460,252.587189 441.859528,246.191772 441.207672,239.291428 
	C440.187195,228.488983 433.104858,223.623001 422.329681,222.402756 
	C418.555054,221.975296 414.699677,222.260712 409.994965,222.239380 
M453.450378,406.884460 
	C462.221039,389.622589 455.877930,376.203918 437.287506,373.562622 
	C442.843475,386.016418 445.930542,399.020660 448.813599,412.494904 
	C451.187805,410.989594 452.034363,409.166107 453.450378,406.884460 
M473.840057,427.787628 
	C481.313049,429.696564 488.816406,431.274597 496.906403,430.483551 
	C491.065216,419.147095 477.361542,415.425446 469.117096,425.863617 
	C470.147614,427.111450 471.681366,427.251404 473.840057,427.787628 
M454.401703,329.565308 
	C454.483124,331.694824 453.786926,335.467499 457.462677,333.598999 
	C463.046539,330.760498 466.900085,325.891083 468.292725,319.345490 
	C463.558441,322.413177 454.826843,319.406586 454.401703,329.565308 
M239.698685,385.388550 
	C233.453171,390.961060 233.959412,396.946167 241.150620,399.708282 
	C242.378036,394.492188 243.790283,389.361267 243.753830,383.492889 
	C242.317947,384.141296 241.302078,384.600037 239.698685,385.388550 
z"/>
<path fill="#000000" opacity="1.000000" stroke="none" 
	d="
M515.456299,505.173950 
	C509.599396,505.260315 504.102631,504.711426 499.025940,507.429779 
	C497.735352,508.120789 496.295471,507.956238 495.642212,506.484039 
	C494.872253,504.748901 496.396912,504.245239 497.565613,503.652832 
	C499.090759,502.879761 500.738068,502.773468 502.399475,502.834503 
	C506.265228,502.976562 509.897095,502.842255 512.734314,499.423676 
	C514.314453,497.519714 516.773254,498.296967 517.779236,500.092407 
	C518.799500,501.913330 518.866821,504.342316 515.456299,505.173950 
z"/>
<path fill="#000000" opacity="1.000000" stroke="none" 
	d="
M506.100372,517.240906 
	C504.232605,517.509338 502.764343,517.736084 501.287964,517.879028 
	C501.041748,517.902832 500.760284,517.562317 500.255737,517.234741 
	C502.012634,513.619202 505.987549,513.670105 508.904572,512.308167 
	C511.348236,511.167297 514.325317,511.186371 516.775818,509.641327 
	C517.774292,509.011780 519.102722,508.845367 519.718506,510.312317 
	C520.319702,511.744354 519.174744,512.465393 518.211121,513.068665 
	C514.623047,515.314819 510.458801,515.962646 506.100372,517.240906 
z"/>
<path fill="#000000" opacity="1.000000" stroke="none" 
	d="
M406.652710,495.729065 
	C396.844116,501.253998 390.434692,499.216431 385.815002,489.385132 
	C379.293945,475.507507 382.770386,458.419342 393.930878,449.492218 
	C400.263245,444.427032 408.564697,443.278595 414.408752,446.607086 
	C417.703064,448.483398 419.968201,451.251892 419.630371,455.035675 
	C418.672821,465.760651 417.396820,476.466705 414.550446,486.894470 
	C413.448059,490.933044 411.079590,494.044006 406.652710,495.729065 
z"/>
<path fill="#000000" opacity="1.000000" stroke="none" 
	d="
M267.635803,469.513367 
	C269.703644,476.218414 272.244965,482.513550 270.223877,489.317505 
	C268.500610,495.118835 264.228577,496.930084 259.066925,493.729645 
	C246.579971,485.987183 241.118484,473.652924 237.782639,460.069916 
	C236.908203,456.509369 236.469696,452.944763 237.584274,449.239258 
	C239.468079,442.976471 243.604233,441.098450 249.351181,444.705994 
	C256.453308,449.164185 261.130096,455.855377 264.882141,463.211884 
	C265.862793,465.134644 266.623871,467.169403 267.635803,469.513367 
z"/>
<path fill="#000000" opacity="1.000000" stroke="none" 
	d="
M396.752441,438.528503 
	C386.253815,441.760895 381.936707,449.699615 379.425507,459.103241 
	C378.824707,461.353027 378.485443,463.727509 376.375519,465.156403 
	C374.503052,466.424469 372.580750,466.037048 370.726562,464.998749 
	C368.014008,463.479797 367.226166,460.970978 367.747192,458.178894 
	C370.372650,444.109375 378.125824,431.109344 394.226532,427.097321 
	C398.912262,425.929688 403.700439,425.309937 408.556976,425.954956 
	C412.489075,426.477203 415.410095,428.428894 415.075378,432.648682 
	C414.729889,437.004211 411.673035,438.352936 407.532104,437.581909 
	C404.006927,436.925507 400.607422,438.144165 396.752441,438.528503 
z"/>
<path fill="#000000" opacity="1.000000" stroke="none" 
	d="
M280.000397,473.081665 
	C277.859039,471.735687 277.227448,469.867371 276.627655,467.936920 
	C273.616608,458.246552 268.604736,449.764282 261.277344,442.691528 
	C258.462555,439.974548 256.223480,437.086975 259.565704,433.294617 
	C262.072815,430.449890 266.151001,430.724304 269.657410,434.159027 
	C278.500092,442.820831 284.531006,453.213654 287.979187,465.071503 
	C289.386414,469.910767 287.432190,475.009277 280.000397,473.081665 
z"/>
<path fill="#000000" opacity="1.000000" stroke="none" 
	d="
M433.873413,447.939575 
	C438.872131,446.659058 441.465607,448.455200 442.494202,453.140961 
	C444.167755,460.765045 443.955627,468.306274 441.872925,475.774109 
	C440.890747,479.295685 438.717987,481.904968 434.630951,480.838013 
	C430.476746,479.753601 429.365875,476.822235 430.565643,472.714081 
	C432.272156,466.870667 432.304352,460.943115 430.923798,454.997406 
	C430.267456,452.170746 430.810822,449.701813 433.873413,447.939575 
z"/>
<path fill="#000000" opacity="1.000000" stroke="none" 
	d="
M377.344421,292.040436 
	C377.399017,298.846436 376.107452,304.757996 371.519257,309.481384 
	C367.252106,313.874329 361.580048,313.595398 357.652527,308.912567 
	C351.001770,300.982819 351.263824,284.019897 358.157562,276.219940 
	C362.624786,271.165436 369.131592,271.422363 373.039429,276.987183 
	C376.084900,281.324097 377.394745,286.276886 377.344421,292.040436 
z"/>
<path fill="#000000" opacity="1.000000" stroke="none" 
	d="
M305.614624,311.415070 
	C300.876129,311.909912 297.856079,309.786560 295.904846,306.168701 
	C290.797577,296.699188 290.970459,287.071014 295.843109,277.618500 
	C297.636597,274.139313 300.452820,271.511871 304.893585,271.683319 
	C309.234650,271.850861 311.954468,274.345306 313.668732,278.009125 
	C317.765320,286.764465 317.723328,295.672638 313.831512,304.434296 
	C312.350220,307.769104 310.106262,310.773132 305.614624,311.415070 
z"/>
</svg>